<?xml version="1.0" encoding="UTF-8"?>
<svg id="Calque_1" data-name="Calque 1" xmlns="http://www.w3.org/2000/svg" viewBox="0 0 565.98 73.33">
  <defs>
    <style>
      .cls-1 {
        fill: #1d1d1b;
      }
    </style>
  </defs>
  <g>
    <path class="cls-1" d="M56.01,56.92H23.09l-6.28,15.19H0L31.6,1.22h16.21l31.7,70.9h-17.22l-6.28-15.19ZM50.85,44.47l-11.24-27.15-11.24,27.15h22.49Z"/>
    <path class="cls-1" d="M86.9,1.22h32.21c23.19,0,39.1,13.98,39.1,35.45s-15.9,35.45-39.1,35.45h-32.21V1.22ZM118.3,58.65c14.08,0,23.3-8.41,23.3-21.98s-9.22-21.98-23.3-21.98h-14.99v43.96h14.99Z"/>
    <path class="cls-1" d="M216.25,56.92h-32.92l-6.28,15.19h-16.81L191.83,1.22h16.21l31.7,70.9h-17.22l-6.28-15.19ZM211.08,44.47l-11.24-27.15-11.24,27.15h22.49Z"/>
    <path class="cls-1" d="M241.67,36.67c0-21.37,16.41-36.67,38.49-36.67,12.26,0,22.49,4.46,29.17,12.56l-10.53,9.72c-4.76-5.47-10.74-8.31-17.83-8.31-13.27,0-22.69,9.32-22.69,22.69s9.42,22.69,22.69,22.69c7.09,0,13.07-2.84,17.83-8.41l10.53,9.72c-6.68,8.2-16.91,12.66-29.27,12.66-21.98,0-38.39-15.29-38.39-36.67Z"/>
    <path class="cls-1" d="M334.34,14.59h-22.69V1.22h61.79v13.37h-22.69v57.53h-16.41V14.59Z"/>
    <path class="cls-1" d="M382.25,1.22h16.41v70.9h-16.41V1.22Z"/>
    <path class="cls-1" d="M565.98,1.22v70.9h-13.47l-35.35-43.05v43.05h-16.21V1.22h13.57l35.25,43.05V1.22h16.21Z"/>
  </g>
  <path class="cls-1" d="M451.64,0c1.66.48,3.47.45,5.21.8,13.07,2.65,23.27,12.77,27.37,25.28l1.54,7.72v5.85l-1.46,8.12c-10.22,35.44-63.25,33.7-69.89-3.24-.35-1.97-.35-3.94-.8-5.86.06-1.29-.08-2.61,0-3.9C414.82,16.1,429.25,1.34,448.06,0h3.57ZM450.37,60.81c14.25-1.16,26.54-11.88,28.52-26.24,3.31-23.94-20.01-39.94-41.88-31.15-22.43,9.01-29.81,38.37-14.3,56.86.51.61,3.55,3.94,4.22,3.42-1.27-2.73-3.02-5.24-4.15-8.04-6.44-15.96-.23-33.35,15.63-40.44,2.01-.9,9.31-2.68,10.15-3.5,1.03-1.01.4-5.31,1.1-6.71.72-.53,4.79,1.7,5.64,2.2,3.82,2.24,11.64,9.65,12.75,13.9.88,3.39-3.17,8.41-5.36,10.91-3.1,3.53-7.88,8.09-12.66,8.57-.48-1.09-.58-6.48-1.53-6.78-5.81,1.12-15.89,11-16.38,16.72-.48,5.67,9.02,14.15,13.76,16.47.97.48,1.96.84,2.99,1.14,1.51-.16,1.41-6.11,1.49-7.34Z"/>
</svg>