<?xml version="1.0" encoding="UTF-8"?>
<svg id="Calque_1" xmlns="http://www.w3.org/2000/svg" version="1.1" viewBox="0 0 24 24">
  <!-- Generator: Adobe Illustrator 29.7.0, SVG Export Plug-In . SVG Version: 2.1.1 Build 138)  -->
  <defs>
    <style>
      .st0 {
        fill: #fff;
      }
    </style>
  </defs>
  <path class="st0" d="M11.98,20c-1.49,0-3-.29-4.46-.89-2.87-1.19-5.2-3.51-6.38-6.38,0-.01,0-.02-.01-.03-.17-.45-.17-.94,0-1.39C3.61,5.28,10.49,2.42,16.48,4.89c2.87,1.18,5.2,3.51,6.38,6.38.18.48.18.98.01,1.42-1.88,4.56-6.27,7.3-10.9,7.3ZM3,12c.99,2.37,2.91,4.28,5.28,5.26,2.41.99,5.06.99,7.46-.01,2.4-1,4.28-2.88,5.27-5.28-.98-2.32-2.91-4.25-5.3-5.23-2.41-.99-5.06-.99-7.46.01-2.39,1-4.26,2.86-5.25,5.25Z"/>
  <path class="st0" d="M12,16c-2.21,0-4-1.79-4-4s1.79-4,4-4,4,1.79,4,4-1.79,4-4,4ZM12,10c-1.1,0-2,.9-2,2s.9,2,2,2,2-.9,2-2-.9-2-2-2Z"/>
</svg>