<?xml version="1.0" encoding="UTF-8"?>
<svg id="Calque_1" xmlns="http://www.w3.org/2000/svg" version="1.1" viewBox="0 0 110.44 96.94">
  <!-- Generator: Adobe Illustrator 29.7.0, SVG Export Plug-In . SVG Version: 2.1.1 Build 138)  -->
  <defs>
    <style>
      .st0 {
        fill: #008ecd;
      }
    </style>
  </defs>
  <path class="st0" d="M59.08,2.83c2.07.6,4.32.56,6.49,1,16.27,3.3,28.97,15.9,34.07,31.47l1.92,9.61v7.28l-1.82,10.11c-12.72,44.12-78.73,41.95-87-4.03-.44-2.45-.44-4.9-1-7.29.07-1.61-.1-3.25,0-4.85C13.24,22.88,31.21,4.5,54.62,2.83h4.46ZM57.5,78.53c17.74-1.44,33.04-14.79,35.5-32.66C97.12,16.07,68.09-3.85,40.87,7.09,12.94,18.31,3.76,54.86,23.06,77.87c.63.76,4.42,4.9,5.25,4.26-1.58-3.4-3.76-6.52-5.17-10.01-8.02-19.87-.29-41.51,19.46-50.34,2.5-1.12,11.59-3.34,12.63-4.36,1.28-1.26.5-6.61,1.37-8.35.9-.66,5.96,2.12,7.02,2.74,4.76,2.79,14.49,12.01,15.87,17.3,1.1,4.22-3.95,10.47-6.67,13.58-3.86,4.39-9.81,10.07-15.76,10.67-.6-1.36-.72-8.07-1.9-8.44-7.23,1.39-19.78,13.69-20.39,20.81-.6,7.06,11.23,17.61,17.13,20.5,1.21.6,2.44,1.05,3.72,1.42,1.88-.2,1.76-7.61,1.85-9.14h.01Z"/>
</svg>