<?xml version="1.0" encoding="UTF-8"?>
<svg id="Calque_1" data-name="Calque 1" xmlns="http://www.w3.org/2000/svg" viewBox="0 0 979.67 692.69">
  <defs>
    <style>
      .cls-1 {
        fill: #80c342;
      }

      .cls-2 {
        fill: #fff;
      }
    </style>
  </defs>
  <rect class="cls-1" width="979.67" height="692.69"/>
  <g>
    <path class="cls-2" d="M392.87,325.91c-1.63,1.39-4.38,1.73-18.66,4.21,0,0-.55.06-2.82,1.18-3.32-.02-8.74,2.47-10.34,3.37-.67.37-1.49,2.25-1.75,5.72.95,1.14,1.45,1.06,2.67,1.06,6.84,0,16.6-3.43,17.79-3.22,4.44.99,6.5,7.84,6.5,11.37,0,.39-.43,2.56-.52,2.81-.55,1.49-3.23,2.73-6.46,3.03-15.38,1.4-22.57,2.59-24.35,3.85-.35.25-.87,1.95-.87,2.89,0,3.62,7.7,4.56,9.01,4.56,4.77,0,7.16-2.54,8.9-2.54,2.09,0,6.37,5.05,6.37,10.74,0,3.73-2.19,9.83-11.7,9.83-2.47,0-12.94-1.84-20.46-7.12,0,0,.23-1.53-2.92-3.77-1.07-1.82-3.02-8.26-3.02-13.19,0-10.93,5.41-18.2,6.15-22.44,0,0-2.58-3.63-3.58-4.96-.55-.74-1.15-1.37-1.15-4.1,0-8.53,5.59-10.13,5.86-10.13l1.95.03s4.13-1.89,4.69-2.68l3.06-.21c1.81-.23,22.28-5.52,26.37-5.52,3.26,0,4.53.54,5.82,2.53.86,1.33,4.34,7.69,4.34,9.96,0,.54-.44,2.38-.87,2.74"/>
    <path class="cls-2" d="M403.01,359.15c-.46.45-.97,2.17-1.1,3.2-.15,1.31,4.62,3.39,8.95,3.61,12.66.65,11.04-5.19,14.74-3.36,2.42,1.2,4.56,7.32,4.56,10.88,0,8.19-7.97,10.5-15.04,10.5-9.7,0-18.38-4.53-18.38-4.53,0,0-7.46-9.29-7.46-15.98,0-15.34,8.16-32.24,8.56-33.04,0,0,.67-4.42,1.07-7.27.45-3.23,2.62-3.89,4.44-5.91,4.15-.42,11.51-3.69,34.62-6.19,2.92-.32,6.55,3.73,8.51,9.85.34,1.09-.22,5.37-1.68,5.82-.87.27-3.19.53-21.88,2.48-3.22.34-6.57.88-7.9,1.83-1.49,1.07-4.35,5.82-4.76,7.41-.42,1.64.42,2.51,2.51,2.29,9.85-1.05,16.49-5.36,17.25-5.36,3.52,0,6.86,4.68,7.84,9.81.58,2.99-.23,5.49-1.18,6.11-2.88,1.87-7.48,3.04-12.36,3.99-2.12.41-3.63.34-4.49.26-.42-.03-1.44.68-2.04.77-7.13,1-13.54,1.59-14.8,2.81"/>
    <path class="cls-2" d="M615.53,319.04c0,3.84-1.11,6.35-2.47,6.88-6.02,2.3-26.24,5.18-35.57,8.29-1.7.56-4.73,5.65-4.73,7.63,0,1.02,1.17,1.36,2.91,1.13,13.48-1.78,15.81-2.94,21.44-5.46.94.06,2.29.18,3.07,1.02,1.61,1.73,3.26,5.13,3.26,10.09,0,3.03-1.33,6.22-6.61,7.02-6.98,1.06-23.03,3.43-27.73,3.99-2.36.28-3.73.9-3.94,1.2-2.12,3.05-1.28,9.44,13.12,6.29,6.04-1.32,7.24-3.54,10.66-3.54.23,0,.65.04.89.11,2.94,2.49,3.58,5.45,3.58,9.5,0,4.82-2.06,8.03-6.32,10.21-.35.17-1.94.49-2.1.51-.17.03-2.11,1.13-3.04,1.38-2.52.68-4.43.81-5.35.81-9.88,0-25.6-4.54-25.6-22.79,0-16.55,11.24-28.12,14.22-39.05,0,0,.76-.77,1.5-1.89.21-1.89,1.92-6.29,4.04-6.52,5.27-.57,21.53-4.1,35.87-8.74,1.2-.39,2.27-.26,3.19.39,2.5,1.76,5.69,6.63,5.69,11.55"/>
    <path class="cls-2" d="M308.52,343.8c-.49.26-1.97-.25-2.16-.43,0,0,2.62-15.34,2.85-18.64,3.68-1.03,8.58,1.01,8.58,5.88,0,4.22-1.95,9.26-9.26,13.18M338.17,366.78c-2.93-3.29-12.38-8.49-15.62-11.81,1.4-1.59,8.98-12.27,8.98-20.71,0-11.92-8.65-26.21-20.28-26.21,0,0-3.39.06-7.5.38-.75,1.16-3.23.89-3.23.89-4.08,1.84-7.88,4.91-7.88,14.78,0,1.77,2.47,3.6,3.97,4.97-.27,3.17-1.38,8.62-2.83,12.32-.53,1.34-4.3,1.87-4.3,1.87l-1.99,2.57c-1.29,7.65.02,8.57,2.67,12.01.35,4.04-1.23,11.05-1.23,15.02,0,2.87,1.1,2.55.52,5.5,0,0,.45.49.68,1.17,1.01,3.03,4.47,5.71,7.79,5.71s4.85-2.56,4.85-3.78c0-3.4-.87-13.78-.79-14.73.29-3.28,1.64-5.08,1.64-5.08,2.23,0,12.18,9.02,20.67,17.68,1.28,1.31,3.83,2.64,6.09,2.64,5.17,0,7.29-5.83,8.77-7.17.81-1.05.92-5.9-.98-8.03"/>
    <path class="cls-2" d="M530.09,336.13c-.9,0-1.47-.29-1.7-1.03-.85-2.65-1.23-8.26-1.23-11.25,3.13-.65,16.86.19,16.86,3.73,0,3.2-9.23,8.56-13.92,8.54M551.16,312.23l-3.71-1.08-1.92-.97c-4.97-.98-16.96-1.17-20.97-.76-.68.07-3.31-.58-4.44-.84-2.99,1.74-5.63,2.54-5.63,2.54-.68,0-2.59-.78-2.59-.78-2.84.22-10.3,1.99-13.68,4-1.57.93-2.61,2.67-3.1,3.64-.02.04-.04.09-.06.13-.12.28-.58.75-.65,0-.08-.72-.19-1.49-.34-2.04-.93-3.48-5.27-6.19-7.91-6.19-1.07,0-3.31,1.19-3.51,2.48-.25,1.61-.43,8.85-1.19,15.87-.08.71-.09,13.94-1.41,18.34-.3.07-1.24.41-1.53-.03-3.32-5.01-12.01-13.67-12.75-19.4-.68-5.29.18-13.63-2.55-15.78-1.01-.8-5.86-2.27-7.56-2.27-2.05,0-3.8.91-4.73,2.22l-.22,1.6-1.51,2.28c-.46,1.48-.72,4.03-.87,9.51l1.27,6.52s-.03,1.51-1.16,2.8l.33,5.03c0,5.65-5.18,25.09-5.18,30.95,0,13.17,11.5,12.08,12.17,11.53.83-.69,2.46-3.5,2.55-4.31.78-7.78,1.58-21.05,3.67-24.95.43-.79,1.52-1.18,2.08-.65,1.84,1.74,3.88,5.65,4.14,6.01,2.04,2.9,8.01,10.14,9.13,16.65.09.54,0,1.86.17,2.88.39,2.21,1.33,4.78,4.33,7.28.82.68,4.08,1.09,6.27.71,2.19-.37,6.16-.8,6.16-11.08,0-6.67-1.09-9.34-1.01-10.62.08-1.28,1.55-13.47,1.55-30.42,0,0-.78-1.53-1.08-2.45.41-1.46.61-2.61.71-3.39.06-.42.28-.73.44-.38h0c.12.25.27.52.43.77.85,1.35,2.79,2.52,5.09,2.52,3.65,0,8.43-4.27,11.74-3.5.45.11.94-.7,3.54-.92.06,1.58.09,5.01-.34,9.77-.19,2.2-1.19,2.69-5.28,2.69-1.49,0-2.44,1.19-2.87,2.14-.54,1.19-1.59,6.94-1.59,8.52,0,3.22,3.59,7.36,7.96,8.52.27,1.35-1.03,11.73-1.03,16.96s1.25,7.59,1.47,7.81c.31.29,4,3,6.83,3,2.13,0,4.54-1.23,4.96-2.08.25-.5.86-1.88.92-4.47.27-11.94,1.62-24.53,3.11-24.97,7.17-2.12,14.12-4.8,21.23-9.97,3.66-2.66,8.26-8.2,8.26-13.74,0-7.25-4.69-15.43-8.13-17.62"/>
    <path class="cls-2" d="M285.43,354.82c0-2.12-2.07-9.26-3.58-10.95-1.92-2.15-4.17-2.66-6.94-2.66-1.83,0-32.49,4.73-36.34,7.11-1.84,1.14-2.53,3.74-2.53,7.53,0,5.3,3.5,7.67,4.5,7.67,2.24,0,17.81-3.02,23.41-4.07,1.15-.21,1.6.26,1.58.73,0,1.36-.39,2.96-.99,3.64-2.17,2.42-5.44,3.91-8.27,4.83-4.42-.85-8.14,2.9-12.57.72-1.91-.02-4.67,1.36-5.98-.78-4.45-1-9.2-1.3-12.76-4.25-1.35-1.28-1.7-2.78-1.7-4.6,0-4.82,7.19-17.19,19.42-28.69,2.54-2.39,11.64-9.07,15.66-9.07,2.69,0,3.62,5.98,5.75,8.25.53.56,2.75.62,3.85.15,2.35-1.02,4.19-2.29,4.19-5.05,0-6.18-2.42-11.2-4.44-13.68-1.27-1.57-7.28-4.15-9.69-4.15-5.13,0-7.55,3.06-9.44,3.12-7.61,4.67-11.22,8.97-12.77,10.36-.61.55-1.36.75-1.36.75,0,0-.47,1.7-1.24,2.79-.28.17-2.96,1.94-2.96,1.94-3.5,3.4-18.66,22.35-18.66,29.43,0,6.65,4.42,15.93,6.04,17.45,5.55,5.18,15.85,8.82,27.45,8.82,8.13,0,15.7-3.21,17.97-4.46.56-.32.93-.27.87.33-.08.68-.17,1.63-.22,2.38-.05.79-.43,4.77-.43,7.47,0,4.71,1.28,7.14,2.58,8.38.59.57,4.57,1.56,7.15,1.56,1.29,0,5.35-1.92,5.35-6.14,0-2.46-.27-5.75-.23-6.55,1.13-21.03,7.34-26.81,7.34-30.29"/>
    <path class="cls-2" d="M638.81,342.8c-.6,1.19-4.2,2.08-10.24,2.16-.27,0-.57-.53-.42-.87,2.49-5.95,7.33-16.42,7.98-16.5.67-.09,1.7.26,2.13.82,1.24,1.6,1.32,12.89.55,14.4M786.73,319.54c-1.14-5.09-5.06-9.75-8.38-10.5-2.99.67-27.55,5.38-43.7,7.49-2.22.29-4.97.4-4.97.4l-1.84.93s-3.22.28-4.76,1.4c-2.09,1.53-4.89,4.5-5.65,9.14l.32,4.23c-4.99,9.91-8.35,17.87-8.35,28.67,0,.21,0,.45.03.69,0,.8-.09,1.19-.3.99-.25-.39-.57-.85-.91-1.24-1.93-2.2-2.56-2.49-3.45-2.49-2.65,0-4.65,4.98-13.57,4.98-8.02,0-23.08-8.41-23.08-12.79,0-9.66,12.85-21.71,22.42-21.71,1.67,0,2.11.48,2.11,1.62,0,1.9-1.43,4.89-1.43,6.78,0,4.61,6.94,7.92,10.58,7.92,1.05,0,8.53-2.75,8.53-13.62,0-6.38-4.66-16.91-12.31-16.91-9.63,0-24.05,5.1-33.7,11.83,0,0-.51,1.19-1.36,1.98-.85.79-3.17,2.36-3.17,2.36-2.3,2.96-4.14,6.88-4.76,8.31-.18.42-.4.96-.6,1.53t0,0c-.42,1.1-1.1,1.47-1.25.83-.06-.56-.12-1.27-.19-2.18-.33-4.1-.67-6.6-1.29-9.63,0,0-1.08-2.91-1.36-4.25-.08-.38-.13-1.98-.13-1.98-2.25-8.62-7.53-14.27-8.26-14.53-3.49-1.27-4.36-1.61-5.89-.64-5.96,3.81-12.97,15.4-23.74,35.29,0,0-1.73,1.95-4.16,3.4.29,3.05.09,4.65-.18,5.53-2.14,6.85-8.35,15.43-8.07,17.19l.34,2.09-.24,2.47c0,1.59,4.91,7.33,9.01,7.33.34,0,.72-.03.95-.1,4.12-3.65,5.31-10.77,8.99-16.75.41-.66.54-.78,1.53-1.15,2.37-.89,7.16-1.7,9.26-1.95,2.09-.26,3.93.2,3.93.2l1.83-.6c1.72-.1,2.64.42,2.64,1.79,0,6.74.14,12.24.6,14.29.72,3.24,3.72,5.45,9.66,5.91.65,0,3.08-1.46,3.83-3.63,1.18-3.44.45-7.79.45-11.52,0-5.59.17-8.92.32-10.73.14-.61.58-.79.76-.22,0,0,0,0,0,0,.58,1.52,1.58,3.78,2.93,5.39,7.41,8.84,19.95,19.17,37.45,20.27,6.97.43,12.11-3.11,14.8-9.97.59-1.49,1-2.8,1.21-3.53.14-.2.4-.13.6.24h0c.35.63.93,1.58,1.86,2.74,6.02,7.57,14.57,9.93,25.34,8.31,12.01-1.81,13.64-3.04,14.65-4.36,1.67-2.17,2.3-5.44,2.54-8.04.17-1.94.42-4.22-1.22-5.86-1.86-1.86-7.62.03-15.21,1.32-10.06,1.7-14.29-2.54-14.18-3.84.07-.78.46-2.38,1.49-2.64,1-.25,3.07.16,3.99.39.38-.02,5.99-1.08,10.19-1.08,1.54,0,3.36.23,3.98.26,0,0,6.61-.49,10.54-1.27,2.4-.48,4.59-2.61,4.79-3.92.59-3.87.15-6.2-.57-7.68-2.78-5.71-6.06-6.36-6.76-6.21-3.5.74-10.51,2.8-19.92,2.31-1.14-.06-1.86-1.4-1.75-2.3.29-2.43,3.3-6.43,6.14-6.97,7.55-1.44,29.92-3.67,38.14-4.08,5.14-.26,10.56,1.31,11.58-.44,1.2-2.04.63-6.23.34-7.52"/>
  </g>
</svg>