<?xml version="1.0" encoding="UTF-8"?>
<svg id="Calque_1" data-name="Calque 1" xmlns="http://www.w3.org/2000/svg" viewBox="0 0 595.28 595.28">
  <defs>
    <style>
      .cls-1 {
        fill: #80c342;
      }

      .cls-2 {
        fill: #fff;
      }
    </style>
  </defs>
  <rect class="cls-2" width="595.28" height="595.28"/>
  <g>
    <path class="cls-1" d="M286.89,212.94c4.63-.19,4.99,3.02,3.68,6.68-.8,2.23-3.7,6.15-3.7,8.32,0,1.1,2.69,3.58,2.69,5.31,0,1.03-1.03,1.85-1.24,2.77-.56,2.45,1.68,6.6,3.22,8.56,1.74,2.21,5.77,4.92,7.05,6.99.59.95-.61,1.85-.33,2.89s2.68,2.07,2.73,3.67l1.87.11c-.48,3.71,3.04,5.53,2.05,9.6-4.59,1.75-1.48,9.29-2.1,11.28-.25.82-1.85,1.67-2.3,3.05-.77,2.35-.33,5.56,1.01,7.61.37.57,1.01.34,1.19.53,1.22,1.25-.31,3.55.24,5.14,1.78.39,2.92,1.5,2.6,3.4-1.53-.26-2.85.58-4.31.69-2.17.17-4.49-.25-6.66,0-6.31.73-11.26,1.86-18.05,1.33-39.75-3.08-73.24-27.56-85.72-65.5-12.46-37.88.35-79.44,30.09-105.37,1.07-.93,5.21-4.39,6.24-4.23,2.28.36,4.14,3.43,4.41,5.6.3,2.35-.47,5.84.11,7.88s3.82.82,4.47,4.91c.26,1.61-1.01,2.35-1.23,3.85-.29,2.05-.3,7.94,0,9.98.35,2.38,2.8,4.3,3.21,6.12.78,3.49-1.03,6.6-.54,9.87.95,6.29,10.5,8.9,14.01,13.96,1.15,1.66,1.95,4.11,3.61,5.71,3.16,3.04,10.51,4.94,14.33,7.66,2.17,1.55,3.32,4.74,5.37,5.96,2.76,1.64,8.16,1.26,11.34,1.98l.64,3.69Z"/>
    <path class="cls-1" d="M422.15,312.85l.67,35.3c-8.79-.51-18.31.68-27.01.03-2.96-.22-5.65-1.24-8.51-1.53-6.05-.6-12.7-2.57-18.81-3.13-7.97-.73-18.17,2.04-25.63,4.96-6.61,2.59-12.82,7.03-19.3,9.35-5.11,1.83-13.27,4.38-18.51,5.48-4.64.97-9.07,1.06-13.71.06-5.45-1.18-12.68-6.18-18.23-7.75-2.22-.63-5.6-.54-7.56-1.14-1.69-.51-3.55-1.99-5.3-2.66-10.61-4.1-21.39-6.55-32.17-9.8-4.55-1.37-6.18-4.12-9.85-6.8-4.71-3.44-10.92-5.87-15.25-9.4-3.73-3.04-5.03-7.16-7.46-11.19-1.96-3.25-4.23-5.5-5.75-9.57-1.91-5.1-3.67-14.38,4.7-10.69,6.98,3.08,11.37,11.2,18.91,15.07,4.31,2.22,9.4,1.74,13.1,3.56,2.17,1.07,3.71,4.51,6.24,5.08,3.58.8,7.49.54,11.07,1.59,7.12,2.1,12.35.49,19.44,1.22,3.91.4,8.95,2.31,12.66,2.66,23.37,2.2,37.8-11.58,59.35-14.65,12.79-1.82,19.91-.55,31.63,4.3,8.54,3.54,9.95,5.83,20.29,4.98,6.18-.51,13.75-1.71,19.99-2.67,2.05-.32,14.45-3.24,15.02-2.64Z"/>
    <path class="cls-1" d="M346.72,129.17c14.42,13.81,25.65,30.55,30.66,50.28,2.37,9.34,4.28,26.51,2.81,35.85-.17,1.09-1.13,1.51-1.24,2.08-.17.87.1,3.24-.28,5.07-5.63,27.16-24.14,53.44-48.23,67.01-3.56,2.01-7.82,3.72-11.57,5.42l8.65-12.99c3.35-2.58,5.3-5.78,7.69-8.96,2.01-2.67,6.58-4.97,8.64-7.35.69-.8.76-2.22,1.67-2.99.74-.63,2.06-.68,2.53-1.14,1.98-1.89,5.89-8.29,7.38-10.94,1.19-2.12,2.5-12.17,1.97-14.45-.19-.81-1.02-1.52-1.12-2.21-.13-.87,1.05-2.33.5-3.51-2.47-1.14-5.03-2.83-7.24-4.42-1.14-.82-1.91-2.17-3.13-2.87-1.83-1.06-4.48-.87-6.71-1.95s-4.5-3.41-6.6-4.72c-1.14-.71-3.89-1.27-4.78-2.21-.52-.55-.47-1.97-.92-2.42-.89-.87-3.96-1.08-5.24-2.42-2.14-2.22-2.95-4.67-4.32-7.01-1.97-3.35-3.99-1.53-6.62-1.32-3.93.31-3.77.25-7.32,1.34-2.72.83-7.4,2.4-10.03,1.35-1.45-.58-2.78-1.69-4.31-2.4-2.53-1.18-6.33-2.96-8.69-4.64-1.25-.89-1.79-4.2-4.61-3.72-.09-1.12-.08-2.55-.68-3.53-.48-.77-2.33-.67-2-2.04,4.19-7.41,11.85-4.03,18.3-5.03,1.01-.16,1.38-.94,2.13-1.2,1.61-.56,3.34-.37,4.52-2.14.72,1.14.13,2.82.45,4.22.11.5,1.66,4.02,1.85,4.15,2.45.87,5.17,1.05,6.61-1.46.19-3.18-.93-5.97-.6-9.26.5-4.96,4.35-8.61,6.54-12.78,1.62-3.07,2.57-7.81,4.24-10.41.86-1.34,3.52-3.2,3.81-4.18.4-1.36-.21-3.06.2-4.46.3-1.03,1.88-2.45,1.88-4.11,0-2.96-3.08-2.87-4.66-3.98-1.44-1.02-1.27-4.57-5.01-5.01-1.12-.13-7.51,2.11-8.19,2.8-.48.49-.91,2.7-1.43,3.46-.34.5-.9.35-1.16.61s-.17.8-.34.96c-.81.75-4.07,1.63-5.21,1.23-.34-.12-3.71-2.32-3.86-2.5-.3-.38-1.99-6.07-2.09-6.9-.53-4.63,2.45-9.19,5.99-11.94,1.23-.96,4.03-2.03,5.15-3.18,1.22-1.24,2.14-4.42,4.16-5.54l.88-.21c9.8,2.71,19.25,6.14,28.01,11.33,2.36,1.4,9.3,5.78,10.95,7.37Z"/>
    <path class="cls-1" d="M286.89,107.72c1.22,3.15-2.88,3.81-3.26,5.07-.94,3.1.86,7.62-2.42,10.9-1.93,1.93-3.71.99-5.85,1.48-2.83.65-9.03,3.38-11.43,3.23-1.41-.09-3.95-2.32-5.69-3.03-2.43-.98-5.95-.89-7.2-3.46-1.14-2.34-1.72-5.57-1.41-8.14l6.58-3.08c.9-.45,2.02-.16,2.91-.43,2.63-.79,6.02-2.19,8.81-2.51,4.5-.52,11.01-.52,15.32-.05,1.21.13,2.44-.02,3.64.02Z"/>
  </g>
  <g>
    <path class="cls-1" d="M555.36,423.41c-2.47.43-4.62-.87-7.02-.7-10.56.73-21.93,1-32.07,3.25-1.9.42-5.22-.47-6.56,1.44-.17.25-1.63,3.4-1.67,3.66-.94,5.88,4.03,3.03,6.88,3.16.98.05,1.95.64,3.47.55,3.94-.25,7.85-3.19,10.62.65.36.5,2.83,4.8,2.92,5.08.34,1.18.3,6.57-.21,7.57-3.76,3.65-8.39,3.6-13.37,3.34-3.49-.18-7.08-.49-10.66-.67-2.46-.12-7.8-2.53-6.22,2.89.59,2.02,6.26,2.58,8.22,2.39,4.06-.39,7.04-.73,10.79-1.86,2.01-.61,6.03.1,7.25,1.86.85,1.21.46,7.36-.7,8.69-.23.26-3.21,2.52-3.42,2.58-1.01.28-2.12-.1-3.14.19-.57.17-.96.94-1.54,1.12-1.45.44-3.55-.07-5.2.13-1.25.15-2.78,1-4.02,1.02-2.81.04-9.43-1.67-11.91-3.13-3.28-1.92-3.77-4.4-5.88-6.44-.35-.34-1.59-.65-2.16-.83-.78-.03-1.64,4.61-2.03,5.35-.27.52-1.13,1.04-1.59,1.75-.42.65-.5,1.7-.88,2.11-.52.56-5.29,2.66-6.2,2.8-2.27.34-4.11-.29-6.12-.49-.62-.06-1.26.49-1.78.38-.58-.12-6.28-2.26-7.29-2.69-5.81-2.5-17.97-11.37-20.77-17.21-.31-.64-.46-1.25-.36-1.96l-2.02.33-.46.67c-.03,1.74-.08,3.56-.2,5.31-.19,2.57-.02,3.02.05,5.32.05,1.77.29,6.51-.34,7.7-.45.86-1.59.99-2.2,1.51-.53.45.6,1.52-2.46,1.11s-6.54-3.11-7.01-6.31c-.39-2.63,1.11-11.39-1.75-12.24-.93-.28-4.16-.22-5.25-.07-1.26.18-2.09,1.15-3.34,1.32-1.47.2-3.03-.22-4.54.12-3.57.79-4.32,3.88-5.27,7.1l-1.07.21c.5,1.72-1.14,5.82-2.71,5.97l.58,1.21c-2.39.27-2.83,3.49-5.56,2.64-.2-.06-3.32-2.39-3.44-2.57-.84-1.29-1.36-7.48-.91-8.95,2.44-1.21,1.93-2.48,2.98-4.35,2.53-4.53,3.16-7.66,4.83-12.5.23-.66-.07-1.7.21-2.1.14-.2,2.88-1.37,3.58-2.75,5.7-11.23,8.76-18.9,17.68-28.31.43-.46.49-1.25.77-1.53.8-.78,3.03-.89,4.17-.79,3.39.31,3.07,1.63,4.73,3.94,4.03,5.61,5.64,10.69,6.32,17.66.2,2.09-.84,4.85.97,6.35,4.29-2.21,4.91-7.74,8.31-11.01,1.13-1.09,3-2.04,4.37-2.96,5.4-3.66,13.45-7.55,20.04-8.61,3.09-.5,9.23-.83,11.44,1.44.28.29,3.12,4.83,3.19,5.13.17.71-.52,1.43-.3,2.24.18.64,1.1,1.01,1.28,2.11.74,4.81-.27,9.96-4.33,13.01-3.63,2.72-3.95.19-7.59-.14l-.18-1.09-2.5-.18c0-1.25-.77-2.39-.79-3.59-.02-2.04,3.75-8.1-.92-7.66-3.75.35-8.68,2.35-11.53,4.83-.28.24-.32.99-.83,1.47-.61.57-3.02,2.28-3.36,2.77-1.19,1.75-5,10.56-3.86,12.16.1.15.81,0,1.02.24.73.84.92,2.05,2.22,2.82,2.74,1.64,7.64,4.35,10.63,5.36,5.64,1.91,9.53,1.28,14.63-1.4,1.61-.85,2.75-2.63,4.71-2.29-.1,4.09,3.5,3.3,3.99-.34.33-2.42-.48-4.25.16-7.17,1.13-5.16,5.41-10.47,6.4-14.91.37-1.66-.06-3.49.14-5.19.47-3.94,2.11-5.47,5.51-7.15,5.45-2.7,10.43-1.75,16.12-2.54,1.25-.17,2.09-1.14,3.34-1.32,4.35-.62,9.55-.72,13.98-1.34,2.87-.4,5.49-1.58,9.31-2.02,1.66-.19,3.04-1.34,5.03-.32.81.41,4.65,5.45,4.65,6.01v9.66ZM419.42,438.73c1.75.09,8.07.04,9.03-1.3,1.15-1.62,1.47-10.42.65-12.03-.3-.59-1.51-1.42-2.09-1.93-1.95-.58-3.56,2.94-4.13,4.4-.27.69,0,1.65-.24,2.42-.73,2.4-4.57,4.63-3.21,8.44Z"/>
    <path class="cls-1" d="M281.69,431.9c.13.18.75.06,1.15.6,1.12,1.53,3.26,5.83,4.13,6.75.43.46,3.45,1.96,3.86,1.47l2.07-30.23c2.51-3.48,7.04-.58,8.9,2.27.61.94.35,2.81,2.01,2.65h.33c-.28-1.11,3.01-3.38,3.97-3.7,1.03-.34,2.02-.17,2.91-.42,3.4-.96,6.82-1.64,10.25-2.41,5.62-1.27,15.36-1.84,20.9-1.15,2,.25,4.32,1.8,6.9.99.56.09.46,1.17,1.04,1.7.9.82,3.26,1.67,4.33,3s4.11,7.36,4.35,8.99c.43,2.86.09,7.16-1.96,9.35-.62.67-1.5.74-1.88,1.12-2.23,2.24-8.52,8.27-11.26,9.06-1.06.31-2.26.04-3.59.41s-2.75,1.93-3.75,2.24c-1.16.37-2.88.16-4.17.83-.23,1.6.17,3.37-.05,4.95-.18,1.25-1.14,2.09-1.32,3.34-.62,4.39,1.23,12.95-1.03,16.29-2.73,4.04-5.79,3.32-9.54,1.26-1.73-4.07-1.54-7.87-1.46-12.25.03-1.49-.11-4.25,0-5.28.2-1.86,2.04-2.41.35-5.02-.67-1.04-1.76-1.04-2.18-1.49-.32-.35-.4-1.03-.79-1.51-2.84-3.45-4.28-5.12-2.55-9.84,1.25-3.41,2.98-2.47,5.43-3.9,4.4-2.57,1.18-6.77,3.09-10.57-.88.12-1.55-.62-2.36-.69-.58-.05-4.74,1.33-5.66,1.67-2.34.87-4.4,2.78-6.87,2.24-1.86-.41-4.16-3.43-5.71-.83-.58,1.94.54,3.53.63,5.24.43,8.76-.18,16.58-.72,25.31-.25,4.11.31,2.77.7,5.34s-.46,7.41-1.47,9.88c-.08.2-1.88,2.86-2.01,2.98-.31.3-4.33,1.46-4.88,1.46-.89,0-2.4-.95-3.01-1.63-.55-.62-2.65-4.16-3-5-1.03-2.52-.54-5.74-1.49-7.83-.49-1.07-1.51-1.66-2.05-2.61-2.27-3.94-4.18-8.25-6.42-12.23-1.47-1.42-2.52-1.35-4.29-.63.59,2.19-.89,3.53-1.26,5.07-.85,3.5-1.05,5.85-.8,9.24.16,2.18-.85,8.08-1.94,9.88-.15.24-2.2,1.53-2.34,1.54-.29.02-5.36-1.08-5.6-1.25-.17-.12-.03-.81-.25-1.01-.63-.54-1.69-.62-2.18-1.53-.36-.66-1-3.49-.98-4.3.16-9.09,4.44-18.04,5.3-27.37.46-4.97.27-10.29,0-15.27-.04-.82-.73-1.57-.65-2.65.05-.7,1.33-5.27,1.67-5.72.42-.56,1.3-.62,1.68-1.01.5-.52.54-1.23.8-1.49,1.19-1.18,5-.39,6.56.15,6.24,2.16,3.21,11.52,4.1,16.55.39,2.18,2.69,5.11,4.06,6.97ZM332.18,431.36c3.31.38,5.76.03,8.6-1.65.72-.42,4.64-3.22,5.02-3.64,1.12-1.26,1.14-2.72,0-3.99-1.76-1.96-8.59-1.89-11.3-2.02-.67-.03-1.36-.63-2.04-.63-1.82-.01-3.53,1.71-3.02,3.64l1.4.72,1.34,7.58Z"/>
    <path class="cls-1" d="M101.45,407.6c.19.18.09.79.3.96.89.72,2.08.94,2.82,2.21,1.87,3.18,2.94,8.56,1.39,12.01l-5.04.99c-2.3-1.18-2.67-6.43-4.4-6.95-1.24-.05-2.74-.27-3.94-.08-.29.05-4.75,1.83-5.23,2.1-1.05.58-8.66,7.56-9.4,8.59-1.38,1.91-1.02,1.63-2.69,3.29-3.42,3.38-4.07,4.22-6.41,8.27-.97,1.67-3.17,3.02-4.23,5.1-.23.45-1.3,3.22-1.41,3.64-2.17,8.74,5.41,8.28,11.26,9.79,1.49.38,3.04,1.64,4.81,1.85,5.07.61,8.77-.58,13.44-1.84,1.58-.43,3.27-.04,5.06-.93,2.16-1.07,2.19-2.83,3.48-4.55l-.36-1.96c-4.23-.24-8.29,1.3-12.48,1.86-2.18.29-4.14.52-6.51.76-1.79.18-2.89.83-4.9-.05.49-1.61-1.87-3.02-1.89-3.56-.02-.43.56-1.13.5-1.98s-.77-1.58-.7-2.67c.27-4.47,5.38-5.73,9.04-6.34,7.73-1.28,15.4-2.47,23.27-3.38.86-.1,1.64-.62,2.67-.68,5.32-.31,6.49,7.77,7.67,11.71l-5.88,16.75c.35,3.14-.62,6.34-.8,9.19-.29,4.48,1.56,8.44-2.66,11.33-3.77,2.57-5.3-1.2-9.22-1.73-2.16-5.16.99-10.2-.8-15.18-4.69-.87-7.3,3.9-12.24,2.58l-.75,1.4c-3.15-.36-6.9.39-9.95-.04-1.26-.18-2.1-1.16-3.34-1.32-2.46-.33-5.34-.29-7.9-.76-1.46-.41-1.93-2.45-2.58-3.08-1.4-1.35-3.31-2.21-4.8-4.19-3.27-4.32-3.86-11.75-2.26-16.84.27-.86,1.25-1.16,1.57-1.76,1.97-3.78,3.21-7.57,6.01-11.31,5.18-6.92,12.17-12.96,18.64-18.69,3.47-3.08,5.08-3.44,9.47-5.16.74-.29,1.3-1.18,1.96-1.37,1.11-.32,3.93-.25,5.11,0,.41.09,4.1,1.86,4.31,2.06Z"/>
    <path class="cls-1" d="M403.36,406.17c.04,1.82,2.51,2.75,3.08,3.91.73,1.48,1.25,6.57.87,8.22-.31,1.36-1.75,2.27-1.96,3.7-4.06-.74-6.91,1.16-10.41,1.92-4.3.94-8.8,1.28-13.04,2.28-2.37.56-4.8,1.82-7.36,1.97l-.78.55c-2.34,3.35-6.79,9.27.7,8.69,3.8-.29,9.39-1.33,13.19-2.14,1.6-.34,3.17-2.36,5.05-1.83.51,2.35,2.73,1.37,2.17,4.53l1.25.45c-.22,3.05.93,6.05-2.03,7.95-2.26.02-4.64,1.82-6.44,2.22-2.3.51-5.44-.07-7.91.09-4.62.29-10.48,1.24-14.32,3.67-.79.5-2.07.29-2.65,1.36,1.06,5.07,6.48,4.7,10.6,5.56l.43-1.28c3.69,1.38,7.98-3.52,11.2-2.56,1.35.4,1.44,2.6,3.12,2.98-.31,2.39.49,5.44-.37,7.6-1.37,3.45-7.81,6.91-11.35,7.3-3.83.43-11.18-.86-14.55-2.72-3.13-1.73-4.09-4.08-6.1-6.58-.45-.56-1.32-.48-1.68-1.08-4.94-8.07,1.36-23.44,5.45-31.14,1.53-2.87,4.41-6.32,5.77-9.55,1.23-2.92,1.01-5.12,3.47-7.85,2.78-3.08,5.44-.99,8.89-1.77,6.29-1.43,12.13-3.4,18.63-4.68,2.4-.47,4.43-2.56,7.06-1.79Z"/>
    <path class="cls-1" d="M258.7,414.22c1.41,1.4,1.79,5.97.16,7.54-1.49,1.44-9.14,1.37-11.65,1.67-2.28.28-5.1,1.02-7.38,1.28-1.47.17-3.2-.26-4.53.13-.25.07-3.97,2.35-4.11,2.55-.37.53-.3,1.43-.68,1.99-.99,1.44-3.88,3.57-.99,5.03.91.46,2.04.43,3.04.35,1.06-.08,4.34-.55,5.2-.8.55-.16.95-.89,1.58-1.08,3.81-1.14,7.28-3.01,10.54.5,1.86,2.01,3.45,7.54,1.68,9.71-.87,1.07-7.64,3.9-9.17,4.16-4.3.72-8.88.87-13.16,1.5-2.44.36-5.18,1.54-7.65,2.01l.25,3.99c.31.44,4.55,1.82,5.39,1.94,1.67.22,10.16-.59,11.23-1.29.63-.41.17-2.5,3.09-1.04.96.48,3.83,4.23,3.99,5.33.18,1.19.18,4.15,0,5.35-.52,3.51-7.6,8.33-11.02,8.31-1.01,0-1.62-.88-2.28-1.01-5.01-.99-7.6-1.51-12.51-3.52-.65-.27-1.67.08-2.09-.22-.21-.15-.15-.92-.44-1.19-.65-.61-1.51-.84-1.97-1.39-4.15-4.97-5.24-11.96-4.34-18.29.17-1.18,1.02-1.89,1.22-2.78.9-4.06,1.27-8.43,2.92-12.4.89-2.14,3.16-4.31,3.74-6.92.81-3.64-.89-5.96,2.46-9.53,1.24-1.32,4.01-1.55,5.83-2.16,3.32-1.11,3.48-.78,6.78-1.21,5.92-.77,12.24-4.12,18.66-3.28,1.24.16,3.41.89,4.01,1.99,1.23,2.23.78,1.37,2.2,2.79Z"/>
    <path class="cls-1" d="M150.77,408.92c-.01,1.25,1.09,1.02,1.48,1.59.51.75.78,2.4,1.28,3.17.71,1.07.88.93,1.89,2.88.68,1.32,2.15,3.1,2.51,4.16.89,2.66.87,9.43.15,12.21-1.09,4.16-2.75,7.11-5.53,10.48-.58.7-2.5.9-2.22,2.88.32,2.17,2.9,2.88,4.41,3.97.21.15.11.78.3.96.8.76,4.27,2,5.82,3.21s3.77,3.36,4.03,5.3c.57,4.29-3.26,5.7-4.63,9.35-.74.5-4.67.49-5.61.21-.17-.05-2.83-1.91-2.95-2.04-.41-.43-.56-1.74-1.14-2.52-1.42-1.89-4.48-3.66-6.3-5.02-2.31-1.73-2.36-3.86-2.73-4.26-.16-.18-1.71.09-2.63-.37-1-.49-2.26-3.17-3.55-2.95-2.26.58-2.86,2.8-3.07,4.96-.36,3.77,2.21,8.52,1.21,11.87-.08.27-2.74,3.62-2.97,3.69-.82.25-4.26-.29-4.82-.72-.21-.16-.33-1.06-.75-1.55-.59-.69-1.67-1.25-1.92-2.1-.53-1.74-1.71-6.99-1.45-8.56.16-.97.95-1.36,1.08-1.98.35-1.72.49-6.26.26-7.99-.25-1.83-2.13-3.3-2.52-5.48-.54-3.04-.53-5.72,2.17-7.55,1.21-.82,3.91-1.09,4.28-2.38.29-.99-.1-2.2.1-3.23.39-2.02,2.03-5.19,2.02-6.69,0-2.26-2.58-4.97-2.73-7.36-.09-1.4,1.13-3.46.78-5.2,2.55-3.19,4.37-5.31,8.86-4.39l.75-1.4c5.43-.66,9.33.85,14.16,2.86ZM146.77,431.28c1.19-2.94,2.64-6.28.44-9.18-.32-.42-3.79-3.18-4.07-3.26-1.53-.46-2.78.26-4.2.63.73,5.84-1.8,10.88-1.37,16.61,4.5.28,5.9-2.94,9.2-4.79Z"/>
    <path class="cls-1" d="M182.89,434.06c3.39,1.36,6.36.52,9.68.03,1.04-.15,2.11.1,3.2-.13,2.24-.48,2.99-2.42,5.96-1.08,4.26,1.94,3.16,3.7,3.95,7.38.32,1.5,1.96,3.71.9,5.17-.77.56-1.93.95-2.85,1.15-6.53,1.38-14.45,1.35-21.16,2.16-.73.09-3.05.78-3.4,1.27-.46,1.84-.89,4.21.79,5.29,2.23,1.45,7.76,2.64,10.29,1.78,1.79-.61,2.02-2.2,4.92-1.73.36,1.47,1.43,1.34,2.03,2.02,1.83,2.07,2.09,7.04,1.69,9.68-.06.37-1.34,2.77-1.46,2.87-.36.29-8.38,2.77-8.92,2.8-2.05.13-3.89-1.32-5.44-1.87-4.45-1.56-9.44-2.92-12.87-6.45-2.85-2.93-2.29-7.05-2.61-10.71-.15-1.65-.86-2.66-.67-4.6.5-5.08,6.46-13.78,5.22-17.92-.27-.91-1.69-1.56-2.22-2.44-1.62-2.67-1.16-7.7.17-10.46,1.05-2.16,5.26-2.42,7.5-3.16,7.47-2.47,15.67-5.37,23.66-6.32,9.85-1.17,8.62,3.15,12.33,10.29l-2.02,3.35c-2.25,0-4.66,1.83-6.45,2.21-1.31.28-2.65-.09-3.86.14-4.4.83-10.13,1.56-14.15,3.17-2.96,1.18-4.12,2.88-4.19,6.12Z"/>
  </g>
</svg>