<?xml version="1.0" encoding="UTF-8"?>
<svg id="Calque_2" data-name="Calque 2" xmlns="http://www.w3.org/2000/svg" viewBox="0 0 1287.41 978.52">
  <defs>
    <style>
      .cls-1 {
        fill: #fff;
      }

      .cls-2 {
        fill: #e13726;
      }

      .cls-3 {
        fill: #03304f;
      }

      .cls-4 {
        fill: #70979e;
      }
    </style>
  </defs>
  <rect class="cls-3" width="1287.41" height="978.52"/>
  <g>
    <rect class="cls-3" x="159.07" y="280.52" width="1007.51" height="414.43"/>
    <g>
      <rect class="cls-1" x="501.84" y="466.81" width="15.81" height="71.33"/>
      <g>
        <path class="cls-1" d="M577.5,521.38c-2.57,5.94-6.28,10.61-10.76,13.68-4.37,3.16-9.63,4.8-15,4.8-15.16,0-27.96-12.42-27.96-28.33,0-14.87,11.59-28.69,27.65-28.69s27.84,12.89,27.84,29.18c0,2.11-.21,3.02-.33,4.24h-39.61c1.01,6.34,6.2,10.16,12.41,10.16,4.84,0,7.41-2.25,9.62-5.04h16.14ZM563.51,505.43c-.67-3.13-3.82-9.13-11.95-9.13s-11.32,6-12.02,9.13h23.97Z"/>
        <path class="cls-1" d="M608.07,499.68c-.07-1.11-.27-4.06-4.95-4.06-3.32,0-4.49,2.15-4.49,3.54,0,2.94,3.94,4.61,8.14,5.85,8.96,2.49,18.45,5.17,18.45,16.71s-9.84,18.22-21.49,18.22c-8.03,0-20.03-3.6-21.48-17.69h15.69c.64,4.88,5.31,4.88,5.99,4.88,2.67,0,5.48-1.54,5.48-4.11,0-4.17-3.91-4.65-13.96-8.54-6.85-2.29-12.52-6.8-12.52-14.03,0-10.56,9.5-17.61,20.44-17.61,6.91,0,18.9,2.76,20.22,16.84h-15.51Z"/>
        <path class="cls-1" d="M653.54,484.64h14.82v5.91h.3c3.11-4.06,8.31-7.72,16.44-7.72,18.74,0,25.73,16.66,25.73,29.07,0,15.42-10.64,28.04-25.68,28.04-9.52,0-13.96-4.62-15.83-6.63v22.62h-15.79v-71.29ZM695.05,511.45c0-6.31-4.58-13.68-13.25-13.68s-13.14,7.37-13.14,13.68c0,6.76,4.9,13.58,13.14,13.58s13.25-6.82,13.25-13.58"/>
        <path class="cls-1" d="M768.23,521.38c-2.56,5.94-6.21,10.61-10.7,13.68-4.45,3.16-9.64,4.8-15.03,4.8-15.13,0-27.92-12.42-27.92-28.33,0-14.87,11.52-28.69,27.64-28.69s27.84,12.89,27.84,29.18c0,2.11-.21,3.02-.37,4.24h-39.55c.94,6.34,6.2,10.16,12.37,10.16,4.85,0,7.4-2.25,9.62-5.04h16.11ZM754.28,505.43c-.72-3.13-3.8-9.13-12-9.13s-11.31,6-11.95,9.13h23.95Z"/>
      </g>
      <polygon class="cls-1" points="795.37 484.64 802.95 484.64 802.95 496.78 795.37 496.78 795.37 538.14 779.53 538.14 779.53 496.78 771.74 496.78 771.74 484.64 779.53 484.64 779.53 466.81 795.37 466.81 795.37 484.64"/>
      <path class="cls-1" d="M823.16,478.96h-15.77v-12.13h15.77v12.13ZM823.16,538.13h-15.77v-53.5h15.77v53.5Z"/>
      <polygon class="cls-1" points="851.12 484.64 858.75 484.64 858.75 496.78 851.12 496.78 851.12 538.14 835.36 538.14 835.36 496.78 827.58 496.78 827.58 484.64 835.36 484.64 835.36 466.81 851.12 466.81 851.12 484.64"/>
      <path class="cls-1" d="M885.65,499.68c-.15-1.11-.3-4.06-4.93-4.06-3.38,0-4.48,2.15-4.48,3.54,0,2.94,3.85,4.61,8.02,5.85,8.97,2.49,18.48,5.17,18.48,16.71s-9.82,18.22-21.48,18.22c-7.99,0-20.03-3.6-21.48-17.69h15.7c.65,4.88,5.31,4.88,5.97,4.88,2.72,0,5.52-1.54,5.52-4.11,0-4.17-3.87-4.65-13.97-8.54-6.85-2.29-12.52-6.8-12.52-14.03,0-10.56,9.49-17.61,20.42-17.61,6.91,0,18.87,2.76,20.24,16.84h-15.49Z"/>
    </g>
    <polygon class="cls-1" points="1054.46 435.18 1086.78 435.18 1086.78 470.59 1121.53 470.59 1121.53 503.36 1086.78 503.36 1086.78 538.79 1054.46 538.79 1054.46 503.36 1019.71 503.36 1019.71 470.59 1054.46 470.59 1054.46 435.18"/>
    <path class="cls-1" d="M873.89,377.43c-.19-1.72-.19-2.49-.19-3.44,0-27.47,20.7-47.5,49.49-47.5s45.17,21.56,45.17,40.44c0,17.55-11.11,27.86-21.27,37.39-12.23,11.45-13.92,15.26-14.49,21.17h-32.74c.19-13.35,7.14-21.56,19.58-33.57,9.41-9.35,12.79-15.07,12.79-20.98,0-6.87-3.2-11.83-10.91-11.83-12.62,0-12.8,11.07-12.98,18.32h-34.45ZM932.6,470.59h-32.74v-32.71h32.74v32.71Z"/>
    <rect class="cls-1" x="944.84" y="437.89" width="74.87" height="32.71"/>
    <rect class="cls-1" x="944.84" y="503.37" width="74.87" height="32.7"/>
    <g>
      <path class="cls-4" d="M266.32,488.43c4.52-34.82,18.71-78.4,68.98-78.47,49.15,2.86,59.76,51.02,58.49,88.27-1.15,33.58,6.45,68.06,20.6,101.59,20.3-20.73,32.82-49.09,32.82-80.39,0-62.39-49.7-113.16-111.67-114.89-.75-.02-1.51-.03-2.26-.04h-2.01c-63.02.54-113.93,51.78-113.93,114.93,0,39.38,19.82,74.12,50.01,94.83-7.84-47.14-5.99-93.53-1.04-125.84Z"/>
      <path class="cls-1" d="M305.76,457.83c-9.16.93-15.88,9.43-14.97,18.97.91,9.53,9.1,16.51,18.26,15.57,9.15-.94,15.84-9.44,14.93-18.97-.91-9.54-9.08-16.5-18.23-15.57ZM308.01,481.39c-3.36.34-6.31-2.18-6.65-5.67-.33-3.47,2.09-6.58,5.44-6.92,3.34-.34,6.31,2.2,6.64,5.68.33,3.48-2.1,6.57-5.44,6.91Z"/>
      <path class="cls-1" d="M348.38,457.71c-9.19.94-15.85,9.43-14.94,18.97.91,9.53,9.05,16.51,18.23,15.57,9.16-.94,15.83-9.44,14.92-18.97-.91-9.54-9.06-16.51-18.22-15.57ZM350.63,481.27c-3.34.34-6.32-2.18-6.66-5.67-.33-3.47,2.11-6.58,5.46-6.92,3.33-.34,6.32,2.2,6.66,5.68.33,3.49-2.12,6.57-5.46,6.91Z"/>
    </g>
    <g>
      <path class="cls-1" d="M1085.36,586.68c-.07-1.08-.29-3.94-4.82-3.94-3.18,0-4.31,2.09-4.31,3.43,0,2.86,3.81,4.47,7.81,5.68,8.66,2.42,17.93,5.02,17.93,16.23s-9.54,17.7-20.91,17.7c-7.71,0-19.4-3.5-20.82-17.18h15.26c.64,4.74,5.17,4.74,5.79,4.74,2.6,0,5.34-1.49,5.34-3.99,0-4.05-3.76-4.51-13.55-8.3-6.61-2.22-12.16-6.6-12.16-13.63,0-10.25,9.19-17.1,19.86-17.1,6.69,0,18.37,2.68,19.6,16.35h-15.02Z"/>
      <path class="cls-1" d="M560.92,624.03h-14.58v-5.61h-.23c-1.3,2.16-4.97,7.29-15.32,7.29-15.5,0-25.63-12.19-25.63-27.8,0-17.57,12.34-27.59,25.38-27.59,9.03,0,13.38,4.48,15.02,6.21v-21.77h15.36v69.27ZM533.28,611.23c9.61,0,13.1-7.98,13.1-13.39,0-6.29-4.42-13.02-12.87-13.02-8.89,0-13.05,7.04-13.05,13.02,0,8.03,5.61,13.39,12.83,13.39"/>
      <path class="cls-1" d="M619.06,607.75c-2.5,5.77-6.1,10.31-10.45,13.29-4.23,3.07-9.33,4.67-14.56,4.67-14.69,0-27.16-12.06-27.16-27.52,0-14.45,11.28-27.88,26.84-27.88s27.08,12.52,27.08,28.34c0,2.06-.18,2.93-.38,4.12h-38.4c.93,6.15,6,9.87,12.02,9.87,4.68,0,7.19-2.19,9.26-4.9h15.75ZM605.47,592.26c-.64-3.04-3.65-8.85-11.62-8.85s-10.96,5.82-11.6,8.85h23.22ZM609.34,555.71l-22.67,10.2-4.41-9.15,22.21-12.11,4.87,11.06Z"/>
      <path class="cls-1" d="M626.97,554.76h15.35v21.46c5.45-5.9,12.76-5.9,14.84-5.9,10.72,0,25.19,7.78,25.19,27.41s-12.85,28.06-25.79,28.06c-7.22,0-12.76-3.51-14.67-7.29h-.22v5.53h-14.7v-69.27ZM654.23,611.31c7.8,0,12.79-6.47,12.79-13.27s-4.99-13.21-12.53-13.21c-8.1,0-12.75,6.62-12.75,13.09,0,7.26,4.84,13.39,12.5,13.39"/>
      <path class="cls-1" d="M688.6,572.07h14.37v5.53h.17c1.36-2.54,4.02-7.28,12.85-7.28v15.68c-7.11.16-12.04,1.58-12.04,9.49v28.54h-15.34v-51.96Z"/>
      <path class="cls-1" d="M745.03,570.4c18.64,0,27.62,14.89,27.62,27.64s-8.98,27.59-27.62,27.59-27.59-14.86-27.59-27.59,8.99-27.64,27.59-27.64M745.03,611.1c6.66,0,12.31-5.49,12.31-13.06s-5.65-13.14-12.31-13.14-12.22,5.54-12.22,13.14,5.57,13.06,12.22,13.06"/>
      <path class="cls-1" d="M826.48,624.03h-14.44v-5.54h-.2c-3.12,6.65-9.46,7.22-13.3,7.22-3.17,0-10.54-.72-15.05-6.56-4.06-5.16-4.65-8.86-4.65-16v-31.06h15.31v28.75c0,3.56,0,10.41,8.23,10.41,4.46,0,8.77-2.37,8.77-10.57v-28.59h15.33v51.96Z"/>
      <path class="cls-1" d="M850.59,566.56h-15.36v-11.78h15.36v11.78ZM850.59,624.03h-15.36v-51.96h15.36v51.96Z"/>
      <rect class="cls-1" x="859.37" y="554.76" width="15.35" height="69.28"/>
      <rect class="cls-1" x="883.43" y="554.76" width="15.34" height="69.28"/>
      <g>
        <path class="cls-1" d="M961.37,624.03h-15.31v-5.61h-.17c-2.56,5.07-8.99,7.37-14.96,7.37-16.28,0-25.79-12.91-25.79-27.75,0-17.03,12.12-27.72,25.79-27.72,8.37,0,13.12,4.14,14.96,7.29h.17v-5.54h15.31v51.96ZM933.19,611.31c9.61,0,12.86-8.27,12.86-13.27,0-6.28-4.28-13.21-12.93-13.21s-12.66,7.44-12.66,13.38c0,4.84,3.5,13.11,12.72,13.11"/>
        <path class="cls-1" d="M970.09,572.07h14.47v5.53h.14c1.3-2.54,4.01-7.28,12.85-7.28v15.68c-7.11.16-12.06,1.58-12.06,9.49v28.54h-15.4v-51.96Z"/>
        <path class="cls-1" d="M1054.83,624.03h-14.63v-5.61h-.15c-1.32,2.16-5.03,7.29-15.31,7.29-15.57,0-25.68-12.19-25.68-27.8,0-17.57,12.33-27.59,25.39-27.59,9.01,0,13.38,4.48,15.02,6.21v-21.77h15.37v69.27ZM1027.21,611.23c9.59,0,13.08-7.98,13.08-13.39,0-6.29-4.47-13.02-12.88-13.02-8.89,0-13.07,7.04-13.07,13.02,0,8.03,5.65,13.39,12.87,13.39"/>
      </g>
    </g>
    <path class="cls-2" d="M335.55,404.55c61.97,1.73,111.67,52.5,111.67,114.89,0,31.3-12.53,59.66-32.82,80.39-14.15-33.53-21.75-68.01-20.6-101.59,1.27-37.25-9.33-85.41-58.49-88.27l-1.94.03v-5.48l2.18.04Z"/>
  </g>
</svg>