<?xml version="1.0" encoding="UTF-8"?>
<svg id="Calque_2" data-name="Calque 2" xmlns="http://www.w3.org/2000/svg" viewBox="0 0 595.28 595.28">
  <defs>
    <style>
      .cls-1 {
        fill: #dd3639;
      }

      .cls-2 {
        fill: #fff;
      }

      .cls-3 {
        fill: #008dcc;
      }

      .cls-4 {
        fill: #e13726;
      }

      .cls-5 {
        fill: #03304f;
      }

      .cls-6 {
        fill: #70979e;
      }
    </style>
  </defs>
  <rect class="cls-2" width="595.28" height="595.28"/>
  <circle class="cls-5" cx="202.2" cy="204.89" r="95.63"/>
  <g>
    <g>
      <g>
        <rect x="46.65" y="313.26" width="13.17" height="59.41"/>
        <g>
          <path d="M109.67,358.71c-2.14,4.95-5.23,8.83-8.96,11.4-3.64,2.63-8.02,4-12.49,4-12.63,0-23.29-10.34-23.29-23.6,0-12.39,9.65-23.9,23.03-23.9s23.19,10.73,23.19,24.3c0,1.76-.18,2.51-.28,3.53h-32.99c.84,5.28,5.17,8.46,10.33,8.46,4.03,0,6.17-1.87,8.01-4.19h13.44ZM98.02,345.43c-.56-2.6-3.18-7.6-9.95-7.6s-9.43,5-10.01,7.6h19.96Z"/>
          <path d="M135.13,340.63c-.06-.92-.23-3.38-4.12-3.38-2.77,0-3.74,1.79-3.74,2.94,0,2.45,3.29,3.84,6.78,4.88,7.46,2.08,15.36,4.31,15.36,13.92s-8.19,15.18-17.9,15.18c-6.68,0-16.69-3-17.89-14.73h13.07c.54,4.06,4.42,4.06,4.99,4.06,2.22,0,4.57-1.28,4.57-3.42,0-3.47-3.25-3.87-11.62-7.11-5.7-1.91-10.43-5.66-10.43-11.69,0-8.79,7.91-14.67,17.03-14.67,5.76,0,15.74,2.3,16.84,14.02h-12.92Z"/>
          <path d="M173,328.11h12.35v4.92h.25c2.59-3.38,6.92-6.43,13.69-6.43,15.61,0,21.43,13.88,21.43,24.21,0,12.84-8.86,23.35-21.39,23.35-7.92,0-11.62-3.84-13.18-5.52v18.84h-13.15v-59.38ZM207.57,350.44c0-5.26-3.81-11.4-11.03-11.4s-10.94,6.14-10.94,11.4c0,5.63,4.08,11.31,10.94,11.31s11.03-5.68,11.03-11.31"/>
          <path d="M268.52,358.71c-2.13,4.95-5.18,8.83-8.91,11.4-3.71,2.63-8.03,4-12.52,4-12.61,0-23.26-10.34-23.26-23.6,0-12.39,9.6-23.9,23.02-23.9s23.18,10.73,23.18,24.3c0,1.76-.18,2.51-.31,3.53h-32.94c.79,5.28,5.17,8.46,10.3,8.46,4.04,0,6.16-1.87,8.01-4.19h13.42ZM256.91,345.43c-.6-2.6-3.16-7.6-9.99-7.6s-9.42,5-9.95,7.6h19.95Z"/>
        </g>
        <polygon points="291.13 328.11 297.44 328.11 297.44 338.22 291.13 338.22 291.13 372.66 277.94 372.66 277.94 338.22 271.45 338.22 271.45 328.11 277.94 328.11 277.94 313.26 291.13 313.26 291.13 328.11"/>
        <path d="M314.28,323.38h-13.13v-10.1h13.13v10.1ZM314.28,372.66h-13.13v-44.56h13.13v44.56Z"/>
        <polygon points="337.56 328.11 343.92 328.11 343.92 338.22 337.56 338.22 337.56 372.66 324.43 372.66 324.43 338.22 317.96 338.22 317.96 328.11 324.43 328.11 324.43 313.26 337.56 313.26 337.56 328.11"/>
        <path d="M366.32,340.63c-.12-.92-.25-3.38-4.1-3.38-2.81,0-3.73,1.79-3.73,2.94,0,2.45,3.2,3.84,6.68,4.88,7.47,2.08,15.39,4.31,15.39,13.92s-8.18,15.18-17.89,15.18c-6.65,0-16.69-3-17.89-14.73h13.08c.54,4.06,4.42,4.06,4.97,4.06,2.26,0,4.6-1.28,4.6-3.42,0-3.47-3.22-3.87-11.63-7.11-5.7-1.91-10.43-5.66-10.43-11.69,0-8.79,7.9-14.67,17.01-14.67,5.76,0,15.72,2.3,16.86,14.02h-12.9Z"/>
      </g>
      <polygon points="506.92 286.91 533.84 286.91 533.84 316.41 562.78 316.41 562.78 343.7 533.84 343.7 533.84 373.21 506.92 373.21 506.92 343.7 477.97 343.7 477.97 316.41 506.92 316.41 506.92 286.91"/>
      <path class="cls-3" d="M356.52,238.82c-.16-1.43-.16-2.07-.16-2.86,0-22.88,17.24-39.56,41.22-39.56s37.62,17.96,37.62,33.68c0,14.62-9.25,23.2-17.71,31.14-10.19,9.54-11.6,12.71-12.07,17.63h-27.27c.16-11.12,5.95-17.95,16.3-27.96,7.83-7.79,10.65-12.55,10.65-17.48,0-5.72-2.66-9.85-9.09-9.85-10.51,0-10.66,9.22-10.81,15.26h-28.69ZM405.42,316.41h-27.27v-27.24h27.27v27.24Z"/>
      <rect class="cls-1" x="415.62" y="289.17" width="62.36" height="27.24"/>
      <rect class="cls-1" x="415.62" y="343.71" width="62.36" height="27.24"/>
      <g>
        <path d="M532.65,413.1c-.06-.9-.24-3.29-4.02-3.29-2.65,0-3.59,1.74-3.59,2.86,0,2.38,3.17,3.73,6.51,4.73,7.22,2.02,14.94,4.18,14.94,13.52s-7.95,14.74-17.42,14.74c-6.42,0-16.16-2.91-17.34-14.31h12.71c.54,3.95,4.31,3.95,4.82,3.95,2.17,0,4.45-1.24,4.45-3.32,0-3.37-3.13-3.76-11.28-6.91-5.51-1.85-10.13-5.5-10.13-11.35,0-8.54,7.66-14.24,16.54-14.24,5.57,0,15.3,2.23,16.32,13.62h-12.51Z"/>
        <path d="M95.86,444.2h-12.14v-4.67h-.19c-1.08,1.8-4.14,6.07-12.76,6.07-12.91,0-21.35-10.16-21.35-23.15,0-14.63,10.28-22.98,21.14-22.98,7.52,0,11.15,3.73,12.51,5.17v-18.13h12.79v57.69ZM72.84,433.54c8,0,10.91-6.65,10.91-11.16,0-5.24-3.68-10.84-10.72-10.84-7.41,0-10.87,5.86-10.87,10.84,0,6.69,4.67,11.16,10.68,11.16"/>
        <path d="M144.28,430.64c-2.08,4.81-5.08,8.59-8.71,11.07-3.52,2.56-7.77,3.89-12.12,3.89-12.23,0-22.62-10.04-22.62-22.92,0-12.04,9.4-23.22,22.35-23.22s22.56,10.43,22.56,23.6c0,1.72-.15,2.44-.31,3.43h-31.99c.77,5.12,4.99,8.22,10.01,8.22,3.9,0,5.99-1.83,7.71-4.08h13.12ZM132.96,417.75c-.54-2.53-3.04-7.37-9.68-7.37s-9.13,4.85-9.66,7.37h19.34ZM136.19,387.31l-18.88,8.49-3.67-7.62,18.5-10.08,4.06,9.21Z"/>
        <path d="M150.88,386.51h12.79v17.88c4.54-4.92,10.63-4.92,12.36-4.92,8.93,0,20.98,6.48,20.98,22.83s-10.7,23.37-21.48,23.37c-6.01,0-10.63-2.92-12.22-6.07h-.18v4.61h-12.24v-57.69ZM173.58,433.61c6.5,0,10.65-5.39,10.65-11.05s-4.15-11.01-10.44-11.01c-6.74,0-10.62,5.51-10.62,10.9,0,6.05,4.03,11.16,10.41,11.16"/>
        <path d="M202.2,400.93h11.97v4.61h.14c1.13-2.12,3.35-6.07,10.7-6.07v13.06c-5.92.13-10.03,1.32-10.03,7.9v23.77h-12.78v-43.28Z"/>
        <path d="M249.2,399.54c15.53,0,23,12.4,23,23.02s-7.48,22.98-23,22.98-22.98-12.38-22.98-22.98,7.48-23.02,22.98-23.02M249.2,433.44c5.55,0,10.25-4.57,10.25-10.88s-4.7-10.94-10.25-10.94-10.18,4.62-10.18,10.94,4.64,10.88,10.18,10.88"/>
        <path d="M317.04,444.21h-12.03v-4.62h-.17c-2.6,5.54-7.88,6.01-11.08,6.01-2.64,0-8.78-.6-12.53-5.47-3.38-4.29-3.88-7.38-3.88-13.33v-25.87h12.76v23.94c0,2.96,0,8.67,6.85,8.67,3.72,0,7.3-1.98,7.3-8.8v-23.82h12.77v43.28Z"/>
        <path d="M337.12,396.34h-12.79v-9.81h12.79v9.81ZM337.12,444.2h-12.79v-43.28h12.79v43.28Z"/>
        <rect x="344.43" y="386.51" width="12.79" height="57.7"/>
        <rect x="364.47" y="386.51" width="12.78" height="57.7"/>
        <g>
          <path d="M429.39,444.2h-12.75v-4.67h-.14c-2.13,4.22-7.48,6.14-12.46,6.14-13.56,0-21.48-10.75-21.48-23.11,0-14.18,10.09-23.08,21.48-23.08,6.97,0,10.93,3.45,12.46,6.07h.14v-4.62h12.75v43.28ZM405.92,433.61c8,0,10.71-6.89,10.71-11.05,0-5.23-3.56-11.01-10.77-11.01s-10.54,6.2-10.54,11.14c0,4.03,2.91,10.92,10.6,10.92"/>
          <path d="M436.64,400.93h12.05v4.61h.12c1.08-2.12,3.34-6.07,10.7-6.07v13.06c-5.92.13-10.04,1.32-10.04,7.9v23.77h-12.83v-43.28Z"/>
          <path d="M507.22,444.2h-12.19v-4.67h-.13c-1.1,1.8-4.19,6.07-12.76,6.07-12.97,0-21.39-10.16-21.39-23.15,0-14.63,10.27-22.98,21.15-22.98,7.51,0,11.14,3.73,12.51,5.17v-18.13h12.8v57.69ZM484.22,433.54c7.99,0,10.9-6.65,10.9-11.16,0-5.24-3.73-10.84-10.73-10.84-7.41,0-10.89,5.86-10.89,10.84,0,6.69,4.7,11.16,10.72,11.16"/>
        </g>
      </g>
    </g>
    <g>
      <path class="cls-6" d="M147.26,178.94c3.77-29,15.58-65.3,57.45-65.35,40.94,2.38,49.77,42.49,48.71,73.52-.96,27.97,5.37,56.69,17.16,84.61,16.9-17.26,27.34-40.88,27.34-66.95,0-51.96-41.39-94.25-93-95.69-.63-.02-1.25-.03-1.88-.03h-1.67c-52.48.45-94.89,43.13-94.89,95.72,0,32.8,16.5,61.73,41.65,78.98-6.53-39.26-4.99-77.9-.87-104.81Z"/>
      <path class="cls-2" d="M180.11,153.46c-7.63.77-13.22,7.85-12.47,15.8.76,7.94,7.58,13.75,15.21,12.96,7.62-.78,13.19-7.86,12.44-15.8-.76-7.95-7.56-13.74-15.18-12.96ZM181.98,173.08c-2.8.29-5.26-1.82-5.53-4.72-.28-2.89,1.74-5.48,4.53-5.76,2.78-.28,5.26,1.84,5.53,4.73.28,2.9-1.75,5.47-4.53,5.75Z"/>
      <path class="cls-2" d="M215.61,153.36c-7.65.78-13.2,7.85-12.44,15.8.76,7.93,7.54,13.75,15.19,12.96,7.63-.78,13.18-7.86,12.43-15.8-.76-7.95-7.55-13.75-15.17-12.96ZM217.48,172.98c-2.79.29-5.27-1.82-5.54-4.72-.28-2.89,1.76-5.48,4.55-5.76,2.78-.28,5.27,1.83,5.54,4.73.27,2.91-1.76,5.47-4.55,5.76Z"/>
    </g>
    <path class="cls-4" d="M204.92,109.08c51.61,1.44,93,43.73,93,95.69,0,26.07-10.43,49.69-27.34,66.95-11.79-27.93-18.12-56.64-17.16-84.61,1.06-31.02-7.77-71.13-48.71-73.52l-1.61.02v-4.56l1.82.03Z"/>
  </g>
</svg>