<?xml version="1.0" encoding="UTF-8"?>
<svg id="Calque_1" data-name="Calque 1" xmlns="http://www.w3.org/2000/svg" viewBox="0 0 456.17 342.32">
  <path d="M55.05,331.42c.28,3.11,3.34,4.08,6.17,4.08,2.6,0,5.06-.93,5.06-3.11,0-1.81-1.3-2.36-4.51-2.92l-5.66-.97c-5.52-.93-9.51-3.72-9.51-9.7,0-6.64,6.08-10.71,13.96-10.71,9.13,0,14.06,4.08,14.75,10.62h-9.18c-.19-2.51-2.32-3.76-5.47-3.76-2.64,0-4.5,1.16-4.5,3.06s1.49,2.27,4.32,2.78l6.21,1.12c5.98,1.07,9.19,4.27,9.19,9.78,0,6.73-6.36,10.62-14.29,10.62-9.05,0-15.21-3.62-15.95-10.9h9.41Z"/>
  <polygon points="79.31 341.76 79.31 308.65 105.52 308.65 105.52 316.07 88.86 316.07 88.86 321.41 103.47 321.41 103.47 328.83 88.86 328.83 88.86 334.35 105.98 334.35 105.98 341.76 79.31 341.76"/>
  <path d="M132.74,335.6h-13.22l-2.32,6.17h-9.51l13.08-33.12h10.99l13.13,33.12h-9.92l-2.24-6.17ZM122.26,328.22h7.8l-3.76-10.34h-.14l-3.9,10.34Z"/>
  <path d="M164.28,331.42c.28,3.11,3.34,4.08,6.17,4.08,2.6,0,5.05-.93,5.05-3.11,0-1.81-1.3-2.36-4.5-2.92l-5.66-.97c-5.52-.93-9.51-3.72-9.51-9.7,0-6.64,6.08-10.71,13.96-10.71,9.13,0,14.06,4.08,14.74,10.62h-9.18c-.19-2.51-2.32-3.76-5.47-3.76-2.64,0-4.51,1.16-4.51,3.06s1.49,2.27,4.32,2.78l6.22,1.12c5.99,1.07,9.18,4.27,9.18,9.78,0,6.73-6.36,10.62-14.28,10.62-9.05,0-15.21-3.62-15.95-10.9h9.41Z"/>
  <polygon points="188.54 308.65 198.33 308.65 198.33 321.31 211.22 321.31 211.22 308.65 221.01 308.65 221.01 341.77 211.22 341.77 211.22 328.68 198.33 328.68 198.33 341.77 188.54 341.77 188.54 308.65"/>
  <polygon points="226.15 341.76 226.15 308.65 252.36 308.65 252.36 316.07 235.71 316.07 235.71 321.41 250.32 321.41 250.32 328.83 235.71 328.83 235.71 334.35 252.82 334.35 252.82 341.76 226.15 341.76"/>
  <path d="M266.69,331.52v10.25h-9.55v-33.12h16.05c8.67,0,13.63,3.9,13.63,11.51s-4.96,11.37-13.54,11.37h-6.59ZM272.02,324.14c3.85,0,5.25-1.49,5.25-3.99,0-2.64-1.4-4.08-5.25-4.08h-5.33v8.07h5.33Z"/>
  <polygon points="289.28 308.65 299.07 308.65 299.07 321.31 311.96 321.31 311.96 308.65 321.75 308.65 321.75 341.77 311.96 341.77 311.96 328.68 299.07 328.68 299.07 341.77 289.28 341.77 289.28 308.65"/>
  <polygon points="326.9 341.76 326.9 308.65 353.1 308.65 353.1 316.07 336.45 316.07 336.45 321.41 351.06 321.41 351.06 328.83 336.45 328.83 336.45 334.35 353.56 334.35 353.56 341.76 326.9 341.76"/>
  <path d="M357.92,341.77v-33.12h16.56c8.35,0,13.41,3.85,13.41,11.27,0,4.78-2.46,7.93-6.03,9.7l6.95,12.15h-10.43l-5.85-10.58h-5.05v10.58h-9.56ZM373.09,323.77c3.89,0,5.24-1.3,5.24-3.85s-1.35-3.85-5.24-3.85h-5.61v7.7h5.61Z"/>
  <path d="M423.51,325.16c0,9.97-6.63,16.6-17.26,16.6h-14.42v-33.12h14.42c10.63,0,17.26,6.59,17.26,16.51M401.38,316.07v18.28h4.87c4.78,0,7.33-2.88,7.33-9.18s-2.55-9.09-7.33-9.09h-4.87Z"/>
  <path d="M268.33,17.14c.22.2.44.43.73.66-.29-.24-.51-.47-.73-.66M219.76,24.05c-.24.42-.48.78-.75,1.06.27-.27.51-.64.75-1.06M216.87,73.57c-1.2-1.29-2.44-2.77-3.79-4.15,1.35,1.4,2.58,2.87,3.79,4.15M196.19,67.59c-.19-.07-.37-.2-.51-.33.14.14.32.26.51.33"/>
  <path d="M308.31,50.26c-1-14.5-5.46-23.59-13.31-31.44-5.06-5.06-19.9-16-29.2-16-2.56,0-8.38-2.14-10.29-2.14l-12.54-.68-6.71.57c-9.87.85-32.21,8.69-37.92,13.11-2.48,1.92-4.43,3.66-6.94,5.58-3.66,2.82-3.5,3.88-6.26,6.73-1.52,1.57-4.02,5.36-4.96,7.56-.47,1.11-3.43,9.29-3.43,9.55v.9c0,.06-2.86,8.78-3.23,10.64-.69,3.46-1.69,8.54-1.69,12.64v10.29c0,3.62,1.35,5.66,1.35,8.5,0,1.51,2.62,7.69,3.13,9.85,1.7-.46,2.23-2.86,2.23-4.93v-1.79c0-3.39-1.4-9.45,1.79-10.29,0,4.66,2.23,6.53,2.23,11.19,0,7.94-6.7,11.81-6.7,13.42v1.34c0,2.44.89,2.48.89,4.93v4.47l-.02.94s1,.62,1.99,1.02c.72.3,1.73.54,2.22.65.33.1.28-.3.28-.3v-2.31c0-3.27-1.35-4.79-1.35-8.06,2.43.2,4.79,4.47,4.86,6.26l.51,8.06c.19,2.29-1.34,3.65-1.34,5.82,0,3.8,5.38,11.18,7.61,11.18,5.36,0,14.81-8.95,21.48-8.95,6.29,0,9.53,2.07,12.15,5.4.44.56,1,1.72,1,1.72,0,0-.14.43-.35.52-.11.05-.25-.03-.27-.03-.7,0-4.95-4.03-7.6-4.03h-3.59c-4.17,0-8.62,2.61-10.85,4.81-1.89,1.87-5,7.31-5.25,10.41,2.19-1.49,4.85-4.48,8.04-4.48,1.75,0,3.86,1.61,4.04,3.13,0,0,.09.95.09,1.77v.12c0,.77-.19,1.38-.19,1.38,0,0,.66-.17,1.26-.2.33-.01.66-.02.91-.02,2.06.02,2.7.52,3.13.95.29.3.42.63.61.92,0,0,.26-.05.49-.05.57,0,1.61.17,1.99.37,1.5.79,2.93,2.77,3.52,2.74l1.01-.3c3.86,0,6.39,2.61,6.41,2.61,1.07,0,1.8-1.62,4.47-2.24,1.59.84,2.68,2.12,3.04,4.15.05.24.23.73.23.73.26-.07.37-.12.58-.24,2.16-1.27,2.66-4.2,4.65-4.2h.44c1.36,0,3.82,3.04,4.67,4.74.12.24.21.63.26.63.09,0,.17-.12.25-.18.18-.13.34-.28.5-.43,1.87-1.81,2.58-4.76,4.17-4.76,1.4,0,2.59.82,3.52,1.19,0,0,1.73-1.18,3.47-1.87,1.3-.52,2.7-.6,2.85-.63.37-.08,1.25.39,1.25.39.39-.48.79-1.43,1.28-2.56.59-1.38,1.01-2.77,1.52-2.77,1.56-.02.47.76,2.54,1.3,0,0,.16-.3.17-.49.09-1.18.42-2.59,1.31-2.59,1.56,0,.64.79,2.68,1.34v-2.69c0-3.07-3.3-6.66-5.03-8.39-1.18-1.19-2.09-2.42-3.47-3.25-1.26-.76-3.21-1.57-3.91-3.07,0,0,2.04.72,3.62,1.15,1.58.44,2.98.58,2.98.58.75,1.12,4.53,4.15,5.94,5.7,2.02,2.21,2.96,5.04,7.04,5.04h.44c3.5,0,12.98-4.01,12.98-6.71,0-1.89-.91-2.14-.91-4.47,0-2.18-1.34-3.68-1.34-5.37v-5.38c0-1.88,1.54-4.15,2.68-4.91.31.54.46.48.46,1.34v4.03c0,2.75,1.33,6.61,2.23,8.5,3.1-1.63,4.2-.97,6.55-4.19,1.39-1.92,3.3-4.85,3.3-7.89v-1.4s-.21-1.37-.21-1.37c0,0-.19-1.48-.24-1.7-.06-.23-.14-.86-.14-.86-.21-1.42-5.71-5.64-7.36-7.3-2.71-2.71-5.03-4.43-5.03-9.74v-1.79c0-4.87,3.38-11.97,7.15-12.97-.56,2.08-1.43,1.16-2.24,4.46-.53,2.15-1.06,3.44-1.33,5.82l-.46,4.93c-.15,1.29,1.44,3.49,2.24,4.02.3-.54.45-.47.45-1.34,0-.37.89-3.78,1.94-6.87.75-2.22,1.72-4.27,1.91-4.93.88-2.28,3.31-11.76,3.31-12.81,0-2.25,1.07-4.07,1.43-7.15l.36-5.38.12-4.03-.57-7.15ZM231.79,11.77h1.79c1.99,0,8.08,1.6,9.4,2.24.58-.28,2.24-.88,3.17-.91l4.65.09s2.49.52,3.26.78c1.16.39,2.35.04,2.35.04l2.68-.07c1.46,0,1.17,1.42,3.59,1.42h.44c1.65,0,1.04,1.34,2.68,1.34h1.35c.27,0,.49.04.68.12.09.05.18.09.26.14.09.05.16.12.24.18.23.19.44.42.74.67.1.08.21.16.32.23,1-.23,1.02-.45,2.24-.45,1.09,0,1.78-1,1.78.89,0,6.33,8.41,9.99,9.44,18.35l.41,4.48v3.57c0,2.86.88,3.41.88,6.27v.45c0,3.56-3.13,8.84-3.13,12.97v.45c0,2.24-.89,3.14-.89,5.37,0,.92-2.03,3.78-2.9,4.92-.11.14-.95.49-.95.49l-1.6.34s-.37.07-.67-.07c-3.67-1.7-12.28-1.96-11.74-6.12l.41-4.48v-2.24c-1.85,1.35-1.69,5.63-3.4,7.36-.07.07-.14.12-.21.19-.14.12-.3.22-.47.3-.25.12-.54.2-.86.23v-2.68c0-5.75,2.68-10.03,2.68-13.43v-3.58c.05-2.83-8.95-5.34-8.95-8.95,0-1.3,2.77-2.96,4.7-3.51.51-.22,1.29-.23,1.73-.26-1.14-1.7-3.3-2.69-3.3-5.18v-.45c0-3.75-1.48-4.87-4.66-5.64-4.29-1.02-3.68-3.05-6.09-4.66-.35.18-1.56.82-2.89,1.38-1.62.69-3.4,1.3-3.82,1.3h-.45c-1.44,0-2.24-1.63-2.24-3.13v-.45c0-1.2.22-1.23.46-2.24-.61-.05-1.33-.49-2.06-1.13-.16-.14-.32-.3-.49-.46-1.7-1.68-3.27-4.21-3.27-5.12,0-.84,1.65-1.34,2.68-1.34M199.48,55.09c2.01-2.57,4.91-5.28,5.47-10.2.21-1.79,3.25-10.12,4.02-11.64,1.32-2.61,4.37-7.6,8.06-7.6h.9c.4,0,.76-.21,1.08-.54.27-.28.56-.61.75-1.05.88-2.02,2.35-3.49,3.19-3.89,1.44-.69,2.21-.54,2.21-.54,1.03,0,2.19.41,2.16,1.55-.07,2.33-1.13,4.49-1.59,7.63-.12.82-.26,3.66-.18,4.28.21,1.77.54,5.02.71,6.43.04.37.07,1.1.07,1.1,0,0,.64.92,1.28,2.3.81,1.75,1.68,4.1,1.87,4.74.67,2.28,1.86,5.86,1.86,8.43v.45c0,1.05-.74,1.78-1.79,1.78s-.98-.35-1.79-.89c.44,5.34,7.71,15.24,13.94,17.76.9.36,2.4,1,2.61.59,1.34-2.62,4.91-4.47,8.5-4.47h1.34c.74,0,1.35.27,1.35.89,0,.09-.48,1.89-.84,2.21-.51.4-.84,2.03-.96,2.28l3.78,2.78,3.21,2.87.18.15s.96.86.85,1.1c-.11.24-.98.75-1.04.79-.76.43-1.23.8-2.49.8h-.9c-4.16,0-9.15-2.18-12.08-3.59-.66.35-1.07.68-1.81.82-.26.05-.54.07-.87.07h-8.5c-.39,0-.8-.02-1.2-.06-.4-.03-.81-.08-1.2-.16-.42-.07-.82-.16-1.22-.25-.13-.02-.29-.07-.43-.11-.44-.12-.88-.25-1.32-.41-.2-.07-.4-.14-.6-.21-.44-.16-.87-.35-1.3-.54-.23-.1-.47-.22-.7-.33-.45-.22-.91-.46-1.37-.71-.19-.12-.38-.22-.57-.33-.35-.21-.7-.42-1.04-.64-.34-.23-.68-.44-1-.67s-.64-.46-.94-.68c-1.4-1.04-2.61-2.1-3.56-3.07-.24-.24-.47-.48-.71-.75-1.21-1.28-2.44-2.76-3.79-4.15-2.71-2.79-5.92-5.28-10.37-5.28-2.24,0-4.43,3.57-5.82,3.57-.08,0-.17,0-.26-.02-.16-.02-.32-.05-.44-.1-.19-.08-.37-.19-.51-.33-.4-.37-.62-.92-.86-1.43-.06-.12-.07-.79-.01-1,.98-3.86,2.49-6.94,4.66-9.73M221.95,114.26c0,1.68.3.84.45,2.68-.91-.66-1.35-1.02-1.35-2.68v-1.79c0-1.96.9-1.63.9-3.59v-.89c.71-.48,2-1.95,3.36-3.77.82-1.09,1.47-2.43,2.23-3.61.62-.96,1.28-1.84,1.84-2.63.69-.96.92-1.88,1.07-2.52h-1.34c-6.21,0-19.07,18.35-25.96,18.35h-3.58c-2.19,0-4.89-.95-5.81-2.24l1.8.13,4.46-.57c1.78-.21,2.26-.65,3.58-1.34-1.65-2.46-6.17-5.11-8.39-7.27-1.93-1.87-6.37-6.43-6.37-9.74v-1.35c0-1.83,3.76-8.61,4.83-9.94,2.38-2.98,3.62-5.72,9.05-5.72-.46-1.72-2.36-3.13-4.47-3.13h-.9c-1.94,0-1.37.71-3.57.89.26-3.14,4.26-3.57,7.6-3.57h.89c2.08,0,1.35.83,4.02.89.11.16,8.43,8.26,11.3,10.64,3.11,2.65,11.22,5.48,16.89,5.48h2.7c.72,0,1.34.27,1.34.89,0,3.45-6.24,10.93-8.4,13.09-3.18,3.18-8.16,7.31-8.16,13.32M251.57,126.77c0-.33-.05-.98-.1-1.43-.05-.46-.21-.72-.3-1.24-.19-1.02-.47-2.09-.81-2.97-.43-1.13-.97-1.96-1.56-1.96-.94,0-2.24,2.71-2.24,4.03,0,0-.05,2.07-.02,2.3.04.23-.12.78-.34.75-.29-.06-.95-.28-.98-1.26v-2.69c0-1.47-.61-4.02-1.79-4.02-2.38,0-3.57,4.93-3.57,7.6,0,0-.05,1.83-.08,2.15-.02.33.12,1.15.08,1.3-.05.16-.09.37-.4.42-.31.04-.32-.28-.42-.39-.09-.1-.18-.8-.09-2.14.06-1.08-.51-8.06-1.79-8.06-1.05,0-1.79.75-1.79,1.79v1.33s0,.18-.16.32c-.09.07-.25.2-.37.21-.36.02-.41-.42-.44-.59-.22-1.2-.91-2.15-2.17-2.15-1.44,0-2.11,1.48-2.33,3.05l-.37.93c0,.33-.25.93-.25.93-.41-.02-1.07-.85-1.07-1.58v-1.55c0-13.39,8.65-19.32,9.73-26.33.04-.26.28-.73.48-1.04.09-.15.18-.44.41-.4.52.08.47,1.5.47,1.5l-.21,9.26c.28,1.4.45.97.76,2.24.29-.21.58-.57.87-1.04.27-.42.66-.94.91-1.51.57-1.3.95-2.9,1.3-4.4.3-1.27.48-2.47.48-3.35v-2.12s.13-2.5.44-2.71c.26,0,.63.71.64,1.99,0,.32.26,2.39.26,2.39,0,4.74,4.91,6.52,4.91,12.53v3.14c0,1.46,1.5,3.7,2.06,6,.62,2.49,1.07,4.53,1.07,7.43,0,.47-.06.75-.19.94-.21.31-.38.31-.95.38M290.41,97.7c0,6.9-17.9,15.9-17.9,17,0,1.43,4.61,2.56,6.27,2.69-.26,1-.1,1.34-1.34,1.34-13.24,0-12.34-12.98-22.37-15.67,0,4.78-.65,3.15.36,7.24,1,4.08,3.66,4.68,3.66,5.29,0,.4-.5.89-.89.89-3.24,0-6.27-7.44-6.27-11.63v-.9c0-6.71-6.17-11.42-6.26-15.65h4.03c2.86,0,3.41.89,6.27.89h1.79c3.83,0,11.95-3.73,14.2-5.49,1.52-1.21,11.37-7.05,13.1-7.05h2.23c1.66,0,2.03.44,2.68,1.35-2.64,1.26-4.96.95-6.71,3.57,3.16.07,6.5,3.68,6.68,6.72l.48,8.95v.45Z"/>
  <path d="M262.67,61.44c0,.26-2.01,2.98-2.39,3.88-.68,1.58-.78,2.94-1.64,4.18,0-5.81,1.19-7.6,2.24-12.09,1.06.78,1.79,2.24,1.79,4.03"/>
  <path d="M281.91,44v-.45c0-6.64.06-8.66-3.31-13.7-1.37-2.05-3.11-3.28-4.01-4.94-.93-1.39-1.43-2.68-1.96-4.04-.3-.76-.23-2.17-.47-2.26-.23-.09-.77-.06-.88-.03-.05,0-.1.02-.14.04-.05.01-.09.02-.13.04-.07.02-.15.05-.23.07-.04.01-.07.03-.1.04-.07.02-.14.05-.22.06-.03,0-.07.02-.11.02-.08.02-.16.03-.26.05-.1,0-.19.01-.31.02-.11,0-.25.01-.4.01h-.45c-1.65,0-1.05-1.35-2.68-1.35h-.89c-1.65,0-1.04-1.34-2.68-1.34h-1.35c-1.64,0-1.04-1.34-2.68-1.34-1.98,0-3.17.55-4.38.4-1.58-.21-2.19-.84-4.57-.84,0,0-3.9-.14-4.43.17-.19.12,1.26.91,1.38,1.2.13.3,1.49,1.19,1.49,1.19,0,0,1.21.9,1.42,1.14.2.23-.65.16-.84.05,0,0,0,0,0,0-.2-.1-.42-.21-.64-.34-.22-.12-.46-.24-.71-.38-.25-.13-.52-.27-.78-.42-.28-.14-.56-.28-.85-.43-1.9-.97-4.14-2.03-6.17-2.73-.15-.05-.29-.1-.44-.15-2.21-.62-5.71-.82-5.71-.82h-2s-1.01.01-.89.43c.86,3.11,3.07,4.73,5.75,6.03-.28,1.23-.89,1.82-.89,2.68,0,1.37.38,1.71.85,2.58,0,0,.5.37,1.35,0,.42-.18,1.72-.58,2.96-1.15,1.28-.59,2.52-1.25,2.88-1.43-.96-1.45-2.05-1.82-3.88-2.25-.12-.03-.33-.31-.46-.45-.14-.14-.07-.24-.07-.24,0,0,.04-.11.16-.09.07.01,1.09.06,2.19.27.54.1,1.11.26,1.51.37.33.09.69.39.77.49.88,1.21,1.36,1.28,2.35,3.18,1.15,2.2,2.05,2.44,3.52,2.93,3.92,1.3,5.34,1.14,5.99,6.1.81,6.16,8.65,7.15,8.94,15.95,0,.06-.31.17-.52.17-.21,0-.39-.11-.41-.44-1.23-11.87-10.7-7.03-10.7-5.38,0,1.19,8.7,7.92,10.3,8.05l.25.39s-.08.28-.17.35c-.09.07-.25.18-.33.19-3.55.56.69,6.36.69,9.81l.11,3.95-.25,5.12c0,1.64,3.23,2.32,4.65,2.54,2.4.34,3.94,1.37,5.33,1.37h2.24c2.85,0,4.47-7.32,4.47-10.74,0-3.97,3.14-8.66,3.14-12.08,0-2.83-1.35-4.42-1.35-7.61M267.15,57.42l-1.36-1.35.56-2.21s.51-.3.65-.27c.14.03.12.35.12.35-.3,1.27-.42.66-.42,1.68,0,.95.15.59.45,1.79M268.49,58.76s.23-1.12.37-2.05c.14-.92.13-1.97.13-1.97l-.58,1.1s-.26.2-.47.19c-.2,0-.5-.02-.5-.02l.55-1.29.65-1.26.39-.23s.33.01.36.16c.03.15.45,1.02.45,2.23,0,1.57-.44,2.47-1.35,3.14"/>
  <path d="M252.82,77.56s-.83.04-1.27,0c-.44-.04-.55-.28-.55-.28,0,0-.11-.5.08-.5.4.02.96-.1,1.74-.13-.13-.21,0-1.78,0-1.78,0-1.56.94-.6,1.48-2.66l-1.48-.04c-3.37,0-6.23,1.97-7.6,4.03,0,0-.08.15.16.25.93.37,3.47,1.18,3.57,1.23.13.06-.12.29-.12.29,0,0-.19.12-.38.09-.19-.03-3.24-.51-3.24-.51-5.94-.95-9.39-4.55-12.65-8.38-1.79-2.12-6.59-10.53-6.59-14,0-1.9-4.12-2.24-5.42-6.25-.25-.76-.2-1.61-.2-2.66,0-1.28.7-1.38.7-1.38,0,0,.42-.14.45,1.34v.45c0,2.72,1.91,4.58,3.68,5.73,2.41,1.58,3.52,4.22,4.83,4.56l-.39-4.92c-.37-3.01-2.54-5.85-2.73-8.68,0-.09-.09-.34-.23-.45-.58-.49-2.11-1.79-2.14-1.95-.03-.19.33-.09.44-.13.12-.04-.33-5.35-.33-5.35v-6.26c0-3.29,1.51-4.48,1.51-7.2,0,0,.04-.3,0-.83s-.89-.47-.89-.47l-.2,1.48c-.16,1.04-1.23,3.49-1.72,5.26-.04.14-.07.29-.17.37-.09.07-.3.09-.46.03-.3-.1-.21-.68-.21-.68l1.37-4.26.57-2.12c-2.11.36-4.28,2.72-4.28,4.85,0,1.92.89,2.29.89,5.37l-1.58-3.5c-.57-.61-.55-.97-1.55-.97h-.45c-5.99,0-10.52,13.2-11.61,18.82-1.79,9.26-9.87,12.46-9.87,20.11,0,.4.49.9.89.9.2,0,3.23-2.38,3.94-2.78,2.35-1.33,2.45-.36,5.02-.36,7.03,0,13.35,17.9,29.08,17.9h4.93c1.72,0,1.84-.24,2.24-1.34,5.7.47,8.35,4.03,15.21,4.03.87,0,.64-.14,1.53-.38.08-.02.2-.33.13-.42-.47-.54-1.47-1.73-2.68-2.91-1.42-1.37-3.07-2.56-3.46-2.56M220.61,33.7c-.06,2.12.44,1.76-1.34,2.23,0-2.12-.37-1.77,1.34-2.23"/>
  <path d="M269.38,150.95c.8,1.51,1.57,4.58,1.85,6.71l.39,4.93v1.35h2.68c1.03,0,1.34-.32,1.34-1.35v-7.16c0-2-2.97-7.61-4.47-7.61-.37,0-.65.53-.93,1.19-.27.66-.07,1.24-.86,1.94"/>
  <path d="M257.3,156.34c-.21.27.12,12.53.12,12.53l-.57,7.59c-.07.86.85,1.79,1.34,1.79,1.04,0,5.47-3.68,5.43-4.93l-.53-8.5-.57-10.42s-.12-.2-.33-.16c-.38.07-1.29.14-2.33.57-.81.34-1.66.96-2.55,1.52"/>
  <path d="M196.44,154.53c0,1.68,2.96,7.61,4.02,7.61,4.14,0,8.95-10.58,8.95-14.77,0-1.63-1.23-3.58-2.68-3.58h-.89c-3.73,0-9.39,6.28-9.39,10.74"/>
  <path d="M263.56,157.67l.46,8.06v3.14c-.03.95-.01.7.44,1.34.19-.13.41-.26.63-.4,2.21-1.33,5.63-2.91,5.63-5.87l.18-.93-1.07-7.13c-.25-1.71-.99-4.89-2.29-6.19-.2-.19-.4-.35-.62-.44-.19-.11-.23.02-.23.02,0,0-.02.29-.04.48-.41,3.04-3.28,5.39-3.09,7.92"/>
  <path d="M203.68,161.53c.06.18.21.58.31.8,1.21,2.93,4.74,9.65,5.87,9.65.64,0,2.74-2.74,2.74-3.59l-.5-8.5c-.21-2.82,3.13-8.36,3.13-8.5,0-.55-.93-1.34-1.79-1.34h-1.34c-3.27,0-3.43,6.57-7.54,10.76"/>
  <path d="M221.5,155.43c-.2,1.68-.61,1.69-.93,4.03l-.41,4.48v10.74c0,2.49,4.88,6.26,5.82,6.26.3,0,1.67-1.41,2.24-1.79l.02-.9.46-4.03.42-8.5v-7.61c0-1.75-4.24-3.58-5.82-3.58-.73,0-1.42.54-1.79.89"/>
  <path d="M248.8,161.69l.45,8.95c.17,2.4-.9,5.58-.9,7.61,0,1.57,3.3,2.24,4.92,2.24h1.35c.17,0,.68-1.01.89-2.69l.9-8.5v-9.84c0-2-1.79-3.93-3.56-3.93-.45,0-1.96,3.04-3.42,4.85-.5.62-.63,1.21-.63,1.31"/>
  <path d="M213,159.46l.45,10.74c.1,1.57.47,5.37,1.79,5.37,1.59,0,4.03-.2,4.03-1.79l-.14-7.17.58-6.71c.21-2.41,1.34-4.02,1.34-4.92,0-.84-2.89-3.13-4.03-3.13-1.89,0-4.16,5.45-4.03,7.61"/>
  <path d="M238.96,166.17l.17,5.84-.98,7.01s.17.59.44.66c.26.07,1.05.66,3.48,1.41,2.43.75,3.91.73,3.91.73.23-.12.33-.42.44-.73.91-2.54,2.22-8.93,2.05-11.36l-.56-4.46c-.4-3.31-2.24-9.4-5.37-9.4-.51,0-1.35.97-2.21,1.91-.69.75-1.43,1.46-1.68,1.82-.13.19-.23.39-.3.58-.67,1.71.61,3.38.61,5.99"/>
  <path d="M230.45,158.12l-.44,10.74.08,1.12-.98,8.73c-.16,1.41,3.94,4.02,4.92,4.02h.9c1,0,.98-.35,1.79-.89v-.89c0-1.55.69-2.27.93-4.47l.42-5.82v-4.92c0-2.18-2.56-10.29-4.03-10.29-1.68,0-3.49,1.18-3.58,2.69"/>
  <path d="M282.36,204.66c1.83,0,16.33-3.86,18.62-4.65,3.02-1.03,6.26-1.52,9.08-2.56,2.32-.85,6.31-2.4,8.62-3,9.38-2.43,25.28-9.22,32.15-13.95,2.01-1.38,4-4.06,5.22-6.42.71-1.38,3.65-6.24,4.5-7.14,2.01-2.16,3.26-4.25,5.15-6.48,1.61-1.91,3.98-3.96,5.82-5.82,3.53-3.53,8.22-8.32,12.42-10.85,2.95-1.78,11.76-7.08,15.66-7.16-3.32,2.31-8.86,3.84-12.89,6.81-4.02,2.96-7.29,4.68-10.95,8.29-1.88,1.86-7.15,8.32-8.66,10.59-2.82,4.26-4.9,7.3-7.33,11.9,5.11-1.19,15.85-16.52,21.2-20.42,4.39-3.19,7.12-6.06,12.3-8.73,2.36-1.22,3.73-2.28,6.93-3.36,1.13-.38,7.45-1.96,8.34-1.96h.89l6.26.4c6.23.57,10.04,2.77,14.05,5.7,2.12,1.55,8.77,8.23,8.77,10.92,0,2.03,1.1,5.33.89,7.16l-.54,5.36c-.65,6.29-5.31,13.79-9.48,16.84-4.33,3.16-10.67,8.23-17.72,8.23h-4.03l-15.65-1.39-6.72-.16-.89.21-4.48.4c-4.07.52-8.55,1.99-11.36,3.89-1.65,1.1-6.08,6.6-6.08,8.69,0,4.17,3.03,9.85,7.16,9.85h3.13c2.24,0,4.38-2.17,5.82-3.13.07-3.05.89-1.4.89-3.13v-2.24c-.13-.84-1.22-2.49-1.79-2.24-1.88.83-4.46,4.03-4.47,4.03-.4,0-.89-.49-.89-.9,0-2.98,4.55-6.26,8.06-6.26h1.34c2.48,0,8.41,1.51,10.29,2.24,3.18,1.22,6.57,1.6,10.29,2.24l6.24,1.07,8.98-.18c8.7,0,20.06-5.91,24.73-10.17,3-2.74,6.1-5.81,7.94-9.52,1.18-2.38,4.47-9.37,4.47-12.53v-.45c0-1.49.68-2.33.9-4.47l.58-4.91c.83-9.29-6.59-20.49-10.51-25.43-3.71-4.69-3.94-5.31-9.13-8.77-1.87-1.25-9.97-5.64-12.26-5.64s-2.44-.68-4.92-.89l-6.72-.44c-13.47-1.15-30.97,9.91-37.48,16.21-2.91,2.82-3.82,3.91-6.27,7.16-2.29,3.04-4.24,4.24-6.7,6.72-3.38,3.42-10.32,9.54-14.33,12.07-10.67,6.76-22.92,13.14-37.27,15.98-6.65,1.31-14.81,4.26-21.89,4.96-6.99.7-14.48,3.83-21.48,4.91l-6.68,1.05-.91-.15c-1.87,3.52-2.15,3.9-6.63,5.01-2.32.57-6.99,1.94-9.48,2.14.44.6,2.38,1.79,3.13,1.79,1.15,0,2.35.52,3.13.89.93-.44,6.39-1.49,7.96-1.88,3-.73,4.43-1.3,7.2-2.2,5.46-1.79,5.72-4.53,13.49-5.31,6.76-.68,10.76-2.92,15.65-3.59,3.85-.52,12.22-3.58,15.21-3.58,1.6,0,7.35-2.24,8.95-2.24h.45c2.45,0,2.48-.89,4.92-.89,1.98,0,4.53-.74,6.96-1.59,1.1-.38,2.03-.59,3.02-.96.82-.3,1.72-.77,2.38-.99.81-.26,4.83-2,5.35-2.16-.39.12-4.1,2.38-4.76,2.75-.73.42-1.68.84-2.75,1.25-3.6,1.39-8.51,2.59-10.65,2.59-2.44,0-2.47.9-4.92.9-2.18,0-3.68,1.35-5.37,1.35-3.45,0-12.45,4.03-16.12,4.03-4.22,0-11.53,4.03-17,4.03-7.19,0-8.1,2.81-12.37,4.62-1.62.69-11.66,3.88-13.13,3.88h-1.35c.1.28.52.67,1.15,1.1.63.44,1.95.66,2.87,1.14,1.58.83,2.95,1.91,4.49,2.46,1.14.41,2.12.66,2.68.66,2.66,0,7.06-1.79,9.39-1.79h.89c2.33,0,5.42-1.79,8.06-1.79"/>
  <path d="M135.78,173.22c-1.17-.77-2.42-1.58-3.71-2.21,1.3.63,2.54,1.43,3.71,2.21"/>
  <path d="M147.65,180.02s1.41-1.57,1.88-2.51c.47-.94,2.28-2.82,2.1-3.07-.17-.25-3.07-.21-3.07-.21-3.51,0-5.25,2.69-6.71,2.69h-.9c-3.06,0-8.63-6.13-15.65-6.72,0,0,.36-.49.79-.98.37-.43.81-.86.87-.95.14-.21.22-.69.22-.69v-.45s-.05-.26.1-.79c.12-.42,1.26-1.63,1.77-2.15.15-.15.14-.35.14-.35h-1.1c-3.78,0-4.38,5.03-8.16,5.03h-2.24c-1.63,0-3.59,1.23-3.59,2.68,0,.94.17.59.45,1.79-1.1-.4-1.33-.71-1.33-2.43,0,0,0-.96.2-1.11.21-.16-3.53-.68-4.22-.72-.68-.05-2.35-.12-2.31.4,0,1.06,2.49,1.38,4.61,2.76.66.43,1.28.93,1.82,1.45,2.64,2.51,6.15,3.49,6.15,4.58v1.35c0,3.17,1.42,5.21,4.03,5.81-.12-1.4-.46-1.58-.46-3.13,0-.87.13-.88.44-1.43,0,0,.02-.58-.33-1.05-.34-.45-.77-1.02-.77-1.02,3,.14,5.5,1.26,8.26,1.26h4.47c.23,0,.46.01.66.02.12,0,.21,0,.33.02.16,0,.32.02.48.04.13.02.27.04.41.06.19.02.37.06.53.09.03,0,.05.01.07.01.13.04.26.07.38.1.08.02.16.04.23.07.12.04.23.08.35.12.63.22,1.18.51,1.67.85.1.07.21.14.3.22,1.67,1.25,2.58,3.02,3.52,4.46.08.12.15.23.22.34.69,1,2.38,2.31,2.63,2.03.24-.28.28-4.42.28-4.42.12-.82-.94-1.72-1.52-2.43-.51-.62-.66-1.11.67-1.26.23-.03.65-.02.82-.05.17-.03.5-.31.5-.31M129.32,176.91c-2.55,0-3.52-.9-5.37-.9h-.59s-.42-.17-.48-.24c-.44-.57-.72-.66-.72-1.55,0-1.03.31-1.34,1.35-1.34,2.46,0,8.41,2.02,8.94,4.03h-3.13Z"/>
  <path d="M129.85,175.91c-.54-.76-1.68-1.24-2.77-1.24-2.07,0-1.34-.83-4.02-.89,0,0-.22.11-.23.44-.02.32.23.45.23.45,0,0,1.7.54,2.14.55.44,0,4.56,1.1,4.95,1.02l-.3-.32Z"/>
  <path d="M196.63,217.78c.47,0,2.76-.65,6.65-1.75,3.61-1.02,4.33-1.82,8.38-2.43-.6-.82-4.12-2.69-5.37-2.69-3.48,0-12.14,4.03-15.66,4.03-.22,0-8.63,2.8-10.21,3.21-2.12.56-8.49,3.05-10.38,3.05-1.55,0-.68.9-2.24.9-.53,0-7.95,2.32-9.39,2.69-1.16.3-8.93,2.68-8.95,2.68-5.03,0-20.47,7.16-25.95,7.16-1.56,0-.68.89-2.24.89s-9.53,2.28-11.46,2.86c-3.56,1.07-7.43,2.07-11.33,2.54-6.25.75-16.89,4-23.74,4h-.89l-6.69,1.07c-1.73.12-2.56,2.01-2.71,3.86l7.6-.49c2.95-.19,5.58-.86,8.5-1.3l4.02-.51s-3.39,1.16-4.87,1.61c-1.48.46-3.92.62-3.92.62l-9.99,1.03s-14.22,2.29-14.74,2.39c-.52.1-.88-.23-1.51,0-.83.61-3,6.75-3.68,8.92-.14.44-.22.92.49.52,1.57-.48,3.1-1.3,4.84-1.88,2.13-.72,3.98-.92,6.03-1.57,3.78-1.19,8.07-2.07,11.69-3.53,3.5-1.41,7.56-2.59,11.36-3.86,2.48-.82,9.42-4.45,10.57-2.85-7.77,4.12-38.8,13.48-42.07,18.35.82.43,4.69,3.2,6.16,4.15.31.2.79.23,1.05.08,1.87-1.09,8.26-5.54,9.73-6.09,4.2-1.59,6.95-2.84,11.98-4.58,3.96-1.36,22.22-6.99,25.68-6.99,1.56,0,15.97-3.83,17.85-4.52,2.14-.79,15.32-5.33,17.05-5.33s4.65-1.79,6.71-1.79,15.73-4.62,19.96-5.54c6.71-1.46,13.07-3.62,19.77-5.28,5.94-1.48,14.86-3.16,20.24-5.28,2.53-.99,17.04-5.38,19.68-5.38,1.27,0,.81-.14,1.34-.9,0,0-2.86-1.77-5.43-2.45-2.56-.68-7.17-3.24-7.17-3.24-1.48.29-5.48,1.56-9.39,2.67-4.03,1.14-7.96,2.08-8.9,2.12-2.44.1-3.35.62-6.1,1.47-4.96,1.53-11.3,3.81-13.87,4.52-6.56,1.82-12.66,4.28-19.68,6.26-7.32,2.07-13.12,3.72-20.14,5.82-.59.17-1.57.48-2.8.86-.51.16-.94.43-1.52.61-.26.08-1.05.18-1.31.26-1.19.37-2.06.63-3.37,1.02-4.86,1.45-10,2.9-11.32,2.9-1.95,0-1.62.9-3.58.9-2.96,0-6.21,1.77-7.94,3.25-1.59,1.38-5.35,2.87-7.28,3.9-3.9,2.08-11.34,4.72-16.11,5.82.73-2,9.76-4.03,12.14-4.86,3.33-1.16,8.05-3.8,10.86-5.7,4.84-3.27,6.17-2.68,12.18-4.39,2.16-.62,11.82-3.4,13.15-3.4,1.55,0,.68-.9,2.24-.9,2.67,0,12.75-3.96,16.2-4.83,6.1-1.54,10.65-2.7,16.08-4.51,1.83-.61,7.2-2.77,13.33-4.77,4.28-1.4,9.12-2.63,12.56-3.65,2.97-.89,5.18-1.48,5.82-1.48l1.98-.3Z"/>
  <path d="M427.04,260.6l-1.15-1.32c-3.35-2.04-3.56-3.15-8.84-3.15h-.46c-3.56,0-4.81,2.68-8.94,2.68h-.89c-1.86,0-2.8-.28-3.58-1.34,0,0-.36-.45,1.34-.45h1.79c1.45,0,.58-.69,2.24-.89.73-.28-.64-1.1-.93-1.23-2.45-1.06-3.84-3.25-8.92-3.25h-.89c-6.81,0-11.75-5.37-17.45-5.37h-1.79s1.75,1.9,2.99,2.69c.81.52,1.58,2.14,1.58,2.14-6.86.09-7.08-6.63-12.63-6.63-.82,0-.51.91-1.34.91-.11,0-5.25-4.92-10.74-4.92h-1.34s1.02,2.01,2.16,2.56c.97.46,1.66,2.15,1.66,2.15-3.04.15-6.35-2.97-7.96-4.59-1.32-1.34-5.38-4.59-7.49-4.59-1.21,0-1.24-.21-2.25-.45,0,0,1.01,2.21,1.53,2.8.51.59.98,2.44.98,2.44-1.54-.3-2.65-1.21-3.83-2-1.32-.89-1.96-2.07-2.84-3.12-1.45-1.74-2.83-3.24-4.79-3.24h-.44c-2.45,0-4.39,2.24-9.4,2.24,0,0,1.4-1.85,2.19-2.23.56-.27,1.97-1.65,1.97-1.65-2.45-.68-3.81-2.07-6.4-2.38l-4.47-.57-1.79.12c-1.69,0-4.47,1-5.24,1.38-1.21.6-4.44.64-5.04.59-.6-.05-.81-.57-2.7-1.08,0,0-.35-.21-.37-.4-.02-.19.52-.37.52-.37,0,0,2.89-1,3.86-.98s3.62-.77,3.62-.77c-.89-1.32-4.05-2.84-5.87-2.84h-2.23c-1.63,0-.42.72-2.24.9l-5.47.5s-1.27-.07-1.27-.51.7-.31.7-.31c1.53,0,4.25-.78,4.25-1.92,0-1.02-8.28-3.59-10.29-3.59h-2.23c-2.02,0-5.15,2.24-7.16,2.24h-.45c-2.06,0-3.15-.19-3.58-1.79,1.91-.16,2.28-.24,2.69-1.79-1.54-.36-4.88-2.07-6.51-2.89-2.65-1.35-4.71-1.42-6.91-2.47,0,0,.74,1.87,1.6,2.52,1.11.83,1.72,2.7,1.72,2.7-2.53.01-6.12-2.43-7.61-4.28-1.26-1.56-5.32-5.42-6.92-5.42h-1.34c.31,3.72,1.72,2.21,1.79,5.36-2.56-.28-7.57-8.26-13.41-8.95l-4.47-.57-1.81.12c-1.01,0-3.03-1.41-3.58-2.23,0,0-1.04-.72-3.82-.9-.82-.05-1.42.17-1.42.17l-.56.31c-2.71-1.83-5.26-4.06-9.86-4.06h-2.24s-1.57-.61-3.52-1.95c-2.41-1.65-5.85-2.97-7.21-2.97h-.9c-1.05,0-1.16.13-1.79.44-2.08-1.4-5.06-3.13-8.5-3.13h-1.34c-2.86,0-3.4.9-6.27.9h-.89c-1.75,0-3.33-.35-4.48-.9,0,0,1.91-1.03,2.65-1.21.75-.18,2.64-1.21,2.64-1.21-.52-2.04-4.47-3.4-7.09-3.4h-.89c-3.8,0-5.59,1.35-8.94,1.35h-2.25c-1.23,0-1.07-.35-1.34-1.35,0,0,2.17-.57,3.32-1,1.14-.43,2.67-1.3,2.67-1.3-2.38-.97-3.91-2.61-6.88-2.61-1.77,0-1.17-2.04.16-4.44.94-1.71,2.81-4.3,3.07-5.04.25-.74,2-2.38,2.15-2.6-2.01-.54-2.28-1.31-5.64-1.98-2.33-.47-4.33-.72-6.9-.72-5.87,0-12.67,5.83-13.86,5.83-.58.05-1.03-.82-2.17-1.56-.85-.55-1.84-1.06-2.76-1.14.08-3.39,2.66-4.91,3.18-6.62.45-1.49-5.53-3.22-7.65-3.22v-3.13c0-1.96-.89-1.63-.89-3.59v-3.13c0-2.83,1.34-3.31,1.34-5.37v-.45c0-1.3-1.72-4.59-2.19-5.87-1.55-4.34-.52-2.19-4.97-2.19h-1.79c-1.65,0-1.16-.07-2.24.45-1.04-.24-1.32-.45-2.68-.45-9.66,0-25.73-9.39-35.35-11.63.29-3.53,5.03-3.52,6.71-5.82l-3.57-.53-.46.08-8.48-1.05-3.15.15c-2.03,0-1.45-.82-3.58-.9l-18.79-.57-14.32.13c-1.54,0-1.73.33-3.13.44,1.68,2.28,18.41,12.29,22.22,14.47,4.05,2.33,7.9,4.1,11.94,6.41,1.84,1.06,10.77,6.1,11.94,6.41,0,0-.24-1.84-.7-3.19-.56-1.66-.84-3.02-.84-3.02,3.98.88,12.62,3.19,20.82,6.17,9.69,3.52,18.75,7.97,18.75,12.12v2.24c0,3.46-2.6,6.72-5.82,6.72h-1.79c-6.03,0-17.38-4.99-22.99-6.54-2.82-.78-21.76-6.52-21.76-7.78,0-1.35,5.75-4.51,6.72-5.82-1.82-.14-5.54-1.46-8.55-1.65l-2.2-.14-15.18-2.03-19.28-1.58-2.68.03-11.62-1.07-12.1.18c.64,1.78,5.93,3.5,7.78,4.75,2.57,1.73,5.08,2.77,7.54,4.54,2.09,1.49,5.47,2.75,7.78,4.32,2.54,1.72,5.26,2.52,7.97,4.11,5.45,3.22,10.01,5.99,15.93,8.69,4.22,1.92,12.1,7.13,16.1,8.06,0,0-2.03-3.82-2.37-4.27-.35-.45-1.5-2.71-1.5-2.71,3.9-.17,5.89.84,8.71,1.7.58.17,7.59,2.61,7.69,2.61,2.77,0,16.08,5.61,19.29,6.66,6.51,2.12,12.03,3.73,14.01,10.26.09.31-.02,1.49-.16,1.75-1.53,2.75-3.52,5.49-7.64,5.49h-.45c-12.17,0-26.72-8.2-37.59-10.74.9-3.35,3.96-4.15,5.38-6.27,0,0-3.33-.43-3.77-.46-.44-.03-.95.02-1.16.02-1.8-.03-13.62-1.39-14.96-1.37-1.35.02-2.94.03-2.94.03l-9.83-1.07-15.21-.41-5.38.14c-1.21,0-1.24.21-2.24.45.58.5,5.42,2.99,6.43,3.42,2.9,1.19,3.52,2.12,6.03,3.35,3.92,1.93,7.85,5,11.88,7.37,8.03,4.72,16.75,9.31,24.87,13.61-.17-2.12-2.24-4.91-2.24-5.82,0-.63.61-.9,1.35-.9,1.94,0,1.62.9,3.58.9,2.68,0,19.08,5.95,21.48,7.16,3.53,1.77,5.92,3.22,9.24,5.07,3.73,2.08,4.48,5.41,6.86,7.01,0,0,3.9-.92,4.45-1.26.55-.35,2.34-.77,2.98-.85.65-.08,2.39-.68,2.39-.68-.09-1.29-.42-1.49-.42-3.03v-1.79c0-3.58,6.59-9.61,8.95-11.19,0,0,.15-.59.25-1.12.09-.52.08-1.14.08-1.14,1.91,1.23,3.8,1.82,6.83,1.82l.54-4.02-.1-1.36c0-1.03.31-1.34,1.35-1.34h3.14c1.03,0,1.34.31,1.34,1.34v1.79c0,2.01,3.56,9.08,4.79,10.41,1.52,1.65,6.76,5.87,9.07,6.14l4.91.58,1.37-.13c-.14-.27-.84-1.51-1.38-2.76-.51-1.19-.58-1.44-.86-2.61-.28-1.17,0-4.03,0-4.03,0-1.51,1.16-3.13,1.35-5.37,1.6.43,4.03,2.69,6.26,2.69h3.57c2.93,0,6.05-2.06,6.72-2.24.67-.18,1.35,0,1.35,0,0,0-.85.92-1.51,1.72-.66.79-1.92,1.59-1.92,1.59,1.02,1.43,7.51,4.63,11.92,4.75,3.44.09,9.05-3.59,11.19-3.59.4,0,.89.5.89.9,0,1.12-4.04,3.28-5.36,3.58,0,0-.66.85,0,.9.69.05,2.8.89,5.36.89.99,0,4.16-2.8,5.36-2.68,1.28.13.83.14,1.35.89-2.29.05-3.54.84-4.47,2.24.74.39,5.45,1.98,5.65,2.36.21.38,4.68,1.66,5.54,1.66h1.8c3.82,0,5.57-1.78,9.39-1.78h.45c1.21,0,1.8.22,2.24.44.44.22.83.68,0,.91-.83.22-4.47,1.25-4.47,2.23,0,.63,7.5,3.13,8.94,3.13h1.79c3.43,0,3.56-1.72,6.71-1.79-.13,1.6-1.79,4.43-1.79,4.47,0,.72,5.89,3.46,6.72,3.59l7.57,1.04c2.72.28,4.29-3.07,6.74-3.28,0,0,.33,1.05-.16,2-.33.64-.56,1.54-.71,2.05-.14.49.3.62.3.62,2.45,1.28,8.52,4.73,11.77,4.73,2.89,0,5.36-2.23,6.26-2.23h2.69c-.67,1.83-2.58,2.37-3.13,4.47,2.09.17,2.21.89,4.48.89h2.68c2.83,0,3.31-1.34,5.37-1.34,1.55,0,.68-.89,2.24-.89,0,0,1.86-.26,2.68,0,.82.26,1.07.35,1.34,1.34-2.28,0-4.89.97-5.82,2.24,2.42,1.29,5.82,3.13,9.4,3.13h.44c1.72,0,.19-.62,2.24-.89l4.01-.57,2.26.12c1.28,0,.81.14,1.34.9-3.85.08-3,1.6-5.38,2.23,1.23,1.68,7.65,3.59,10.75,3.59h1.79c1.01,0,2.8,3.07,7.73,3.07l2.74-.21c.87,0,4.35,3.41,8.33,3.41h2.68c2.64,0,4.41-1.34,8.06-1.34h.89c1.55,0,1.74.33,3.14.44,0,0-.86.85-2.1,1.66-.79.52-2.05,1.13-2.31,1.15-.38.04-.16.34.09.57.16.16.89.34,1.25.47,2.21.79,6.32,3.76,8.44,3.76,2.49,0,4.09-2.68,8.95-2.68h1.79c1.23,0,1.07.34,1.34,1.34-2.25.05-5.33.86-5.81,2.68,0,0,1.58.93,2.86,1.44,1.28.51,2.52.31,2.52.31,3.34-.73,5.17-3.08,8.93-3.08,1.21,0,1.02,0,1.63.28,0,0,.79.54,1.02.65.23.12-.4.4-.4.4-2.2.19-4.4,1.19-4.93,3.14,1.61.38,2.11.9,4.03.9h2.68c2.38,0,3-1.79,5.38-1.79h1.8c3.11,0,3.92,1.63,6.26,1.34,1.28.06.54.63.18.92-.36.29-.43.24-1.22.27-.8.02-4.78.15-4.78.15-1.81,0-2.32.42-2.68,1.79,2.46.21,4.9,3.13,9.4,3.13h.44c7.8,0,11.26,4.47,17.01,4.47,4.16,0,9.87-5.45,12.97-5.81l4.47-.58c-.75,2.23-4.39,2.24-6.28,3.24-.56.3-4.46,4.08-4.46,4.49,0,1.02,6.04,2.69,7.61,2.69h1.35c2.63,0,3.89-2.75,5.82-4.03,0,0,.85-1.19,1.41-2.31.56-1.12.5-1.17.75-2.6.25-1.42-.23-2.25-.23-2.25M148.2,180.83c-.34.32-.74.43-.98.55.54.81.89.79.89,1.79v5.82c0,3.87-5.59-2.95-6.16-3.68-2.55-3.27-1.71-4.37-8.16-4.37h-2.24l-5.8-.48c-.88-.06-.95-.26-1.54-.58-.01.16.14.46.14.59-.02,1.18-.54,1.36-.39,2.25,0,0,.86,3.67.58,3.73-.79,0-1.93-.16-1.93-.16-1.69-.24-4.02-3.45-4.02-5.36v-2.68c-3.65-1.93-3.63-1.85-6.59-4.61-1.95-1.8-6.38-1.9-6.38-4.34,0-.44.79-1.37,1.79-1.35,0,0,2.87.09,4.24.26,1.37.16,3.07.66,3.21.57.44-.29,1.22-.82,2.39-.82h2.24c4.73,0,3.39-6.58,10.83-4.84-.05,1.92-1.34,2.63-2.27,5.01-.19.47-.14.95-.57,1.49.59.02,1.25.23,1.83.36.43.1.86.23,1.29.39.34.12.67.26,1,.4.15.08.32.16.49.24.31.15.62.31.93.48.03.02.07.05.11.07.21.12.43.25.65.37.07.05.14.09.21.12h0c.07.05.14.09.21.14.23.14.47.29.7.44.3.19.6.39.89.58.29.19.58.37.86.57,1.83,1.21,3.47,2.22,4.76,2.22,1.44,0,2.96-2.47,5.82-2.68,2.86-.21,4.47,0,4.47,0,.74,0,1.34.27,1.34.89,0,.53-2.96,4.84-4.83,6.61"/>
</svg>