<?xml version="1.0" encoding="UTF-8"?>
<svg id="Calque_1" data-name="Calque 1" xmlns="http://www.w3.org/2000/svg" viewBox="0 0 595.28 595.28">
  <defs>
    <style>
      .cls-1 {
        fill: #fff;
      }
    </style>
  </defs>
  <rect class="cls-1" width="595.28" height="595.28"/>
  <g>
    <path d="M112.99,457.17c.29,3.32,3.56,4.35,6.58,4.35,2.77,0,5.4-.99,5.4-3.32,0-1.93-1.39-2.52-4.81-3.11l-6.04-1.04c-5.89-.99-10.15-3.97-10.15-10.35,0-7.08,6.48-11.43,14.9-11.43,9.75,0,15,4.35,15.74,11.34h-9.8c-.2-2.68-2.47-4.01-5.84-4.01-2.82,0-4.81,1.23-4.81,3.27s1.59,2.42,4.61,2.96l6.63,1.19c6.38,1.14,9.8,4.56,9.8,10.44,0,7.18-6.79,11.34-15.25,11.34-9.65,0-16.23-3.87-17.03-11.63h10.05Z"/>
    <polygon points="138.88 468.2 138.88 432.86 166.85 432.86 166.85 440.78 149.07 440.78 149.07 446.48 164.66 446.48 164.66 454.4 149.07 454.4 149.07 460.29 167.34 460.29 167.34 468.2 138.88 468.2"/>
    <path d="M195.89,461.62h-14.1l-2.47,6.58h-10.15l13.96-35.34h11.73l14.01,35.34h-10.59l-2.39-6.58ZM184.71,453.75h8.32l-4.01-11.04h-.14l-4.16,11.04Z"/>
    <path d="M229.55,457.17c.3,3.32,3.56,4.35,6.58,4.35,2.77,0,5.39-.99,5.39-3.32,0-1.93-1.38-2.52-4.8-3.11l-6.04-1.04c-5.89-.99-10.15-3.97-10.15-10.35,0-7.08,6.48-11.43,14.9-11.43,9.75,0,15,4.35,15.73,11.34h-9.8c-.2-2.68-2.47-4.01-5.84-4.01-2.82,0-4.81,1.23-4.81,3.27s1.59,2.42,4.61,2.96l6.63,1.19c6.39,1.14,9.8,4.56,9.8,10.44,0,7.18-6.78,11.34-15.24,11.34-9.65,0-16.23-3.87-17.03-11.63h10.05Z"/>
    <polygon points="255.44 432.86 265.88 432.86 265.88 446.38 279.64 446.38 279.64 432.86 290.09 432.86 290.09 468.21 279.64 468.21 279.64 454.24 265.88 454.24 265.88 468.21 255.44 468.21 255.44 432.86"/>
    <polygon points="295.58 468.2 295.58 432.86 323.54 432.86 323.54 440.78 305.77 440.78 305.77 446.48 321.36 446.48 321.36 454.4 305.77 454.4 305.77 460.29 324.04 460.29 324.04 468.2 295.58 468.2"/>
    <path d="M338.84,457.27v10.93h-10.2v-35.34h17.13c9.25,0,14.55,4.16,14.55,12.28s-5.3,12.13-14.45,12.13h-7.03ZM344.53,449.4c4.11,0,5.6-1.59,5.6-4.26,0-2.82-1.49-4.36-5.6-4.36h-5.69v8.61h5.69Z"/>
    <polygon points="362.94 432.86 373.38 432.86 373.38 446.38 387.14 446.38 387.14 432.86 397.59 432.86 397.59 468.21 387.14 468.21 387.14 454.24 373.38 454.24 373.38 468.21 362.94 468.21 362.94 432.86"/>
    <polygon points="403.08 468.2 403.08 432.86 431.04 432.86 431.04 440.78 413.27 440.78 413.27 446.48 428.87 446.48 428.87 454.4 413.27 454.4 413.27 460.29 431.54 460.29 431.54 468.2 403.08 468.2"/>
    <path d="M436.19,468.21v-35.34h17.67c8.91,0,14.31,4.11,14.31,12.03,0,5.1-2.63,8.46-6.44,10.35l7.42,12.97h-11.13l-6.24-11.29h-5.39v11.29h-10.2ZM452.38,449c4.16,0,5.59-1.38,5.59-4.11s-1.44-4.11-5.59-4.11h-5.98v8.21h5.98Z"/>
    <path d="M506.18,450.49c0,10.64-7.08,17.72-18.42,17.72h-15.39v-35.34h15.39c11.34,0,18.42,7.03,18.42,17.62M482.57,440.78v19.5h5.2c5.1,0,7.82-3.07,7.82-9.8s-2.72-9.7-7.82-9.7h-5.2Z"/>
    <path d="M340.58,121.79c.23.21.47.46.78.71-.31-.26-.54-.51-.78-.71M288.75,129.16c-.25.44-.51.83-.8,1.13.29-.29.55-.69.8-1.13M285.68,182.01c-1.28-1.37-2.6-2.96-4.05-4.43,1.44,1.49,2.75,3.07,4.05,4.43M263.6,175.62c-.21-.08-.4-.21-.54-.35.15.15.34.27.54.35"/>
    <path d="M383.25,157.13c-1.06-15.47-5.82-25.18-14.21-33.55-5.4-5.4-21.23-17.07-31.16-17.07-2.73,0-8.94-2.28-10.99-2.28l-13.38-.73-7.16.61c-10.54.9-34.37,9.27-40.46,13.99-2.65,2.05-4.73,3.9-7.41,5.96-3.91,3.01-3.74,4.14-6.68,7.18-1.62,1.68-4.29,5.72-5.29,8.07-.51,1.18-3.66,9.91-3.66,10.19v.96c0,.06-3.06,9.37-3.45,11.35-.73,3.69-1.8,9.11-1.8,13.49v10.98c0,3.86,1.44,6.04,1.44,9.07,0,1.62,2.79,8.21,3.34,10.51,1.81-.49,2.38-3.05,2.38-5.26v-1.91c0-3.62-1.49-10.08,1.91-10.99,0,4.98,2.38,6.97,2.38,11.94,0,8.47-7.15,12.6-7.15,14.32v1.43c0,2.6.95,2.64.95,5.26v4.77l-.02,1.01s1.06.66,2.12,1.09c.77.32,1.85.58,2.37.69.36.11.3-.33.3-.33v-2.47c0-3.49-1.44-5.11-1.44-8.6,2.6.21,5.11,4.77,5.18,6.69l.54,8.6c.2,2.45-1.43,3.9-1.43,6.21,0,4.05,5.74,11.93,8.12,11.93,5.71,0,15.8-9.55,22.92-9.55,6.72,0,10.16,2.21,12.96,5.76.47.59,1.07,1.84,1.07,1.84,0,0-.15.46-.37.56-.11.06-.27-.04-.29-.04-.74,0-5.28-4.3-8.11-4.3h-3.83c-4.45,0-9.2,2.78-11.57,5.13-2.02,1.99-5.33,7.8-5.6,11.1,2.34-1.59,5.17-4.78,8.58-4.78,1.87,0,4.12,1.72,4.31,3.34,0,0,.1,1.01.1,1.89v.12c0,.82-.21,1.47-.21,1.47,0,0,.71-.18,1.34-.21.35-.01.7-.03.98-.02,2.2.03,2.89.56,3.34,1.02.31.32.45.67.65.98,0,0,.28-.05.52-.05.61,0,1.72.18,2.13.4,1.6.85,3.13,2.95,3.76,2.92l1.08-.33c4.12,0,6.82,2.78,6.84,2.78,1.14,0,1.92-1.73,4.77-2.39,1.7.9,2.86,2.26,3.24,4.43.05.26.25.78.25.78.27-.07.39-.12.62-.25,2.3-1.35,2.83-4.48,4.96-4.48h.47c1.45,0,4.08,3.24,4.98,5.06.13.26.22.68.27.68.1,0,.18-.13.27-.19.19-.14.36-.3.54-.46,1.99-1.93,2.75-5.08,4.45-5.08,1.5,0,2.76.87,3.75,1.27,0,0,1.85-1.26,3.7-1.99,1.39-.56,2.88-.64,3.04-.68.4-.09,1.33.41,1.33.41.42-.51.85-1.53,1.36-2.74.63-1.47,1.08-2.95,1.62-2.96,1.66-.03.5.81,2.71,1.39,0,0,.17-.33.18-.52.1-1.26.45-2.77,1.4-2.77,1.66,0,.68.84,2.86,1.43v-2.87c0-3.28-3.52-7.1-5.37-8.95-1.26-1.27-2.23-2.59-3.7-3.47-1.34-.81-3.43-1.67-4.17-3.27,0,0,2.18.76,3.86,1.23,1.68.47,3.18.61,3.18.61.8,1.2,4.84,4.43,6.33,6.08,2.16,2.36,3.16,5.38,7.52,5.38h.47c3.74,0,13.85-4.27,13.85-7.16,0-2.02-.97-2.28-.97-4.77,0-2.33-1.43-3.92-1.43-5.73v-5.74c0-2,1.64-4.42,2.86-5.24.33.58.49.51.49,1.43v4.3c0,2.94,1.42,7.06,2.38,9.07,3.3-1.74,4.48-1.03,6.99-4.47,1.48-2.05,3.52-5.17,3.52-8.42v-1.49s-.22-1.47-.22-1.47c0,0-.2-1.58-.26-1.82-.07-.24-.14-.92-.14-.92-.22-1.52-6.09-6.02-7.86-7.79-2.89-2.89-5.36-4.72-5.36-10.39v-1.91c0-5.19,3.61-12.78,7.63-13.85-.6,2.22-1.52,1.24-2.39,4.76-.56,2.29-1.13,3.67-1.42,6.22l-.49,5.26c-.16,1.37,1.53,3.72,2.39,4.29.32-.58.48-.51.48-1.43,0-.39.95-4.03,2.07-7.34.8-2.37,1.84-4.56,2.04-5.26.94-2.44,3.53-12.55,3.53-13.67,0-2.4,1.14-4.34,1.52-7.63l.39-5.75.13-4.3-.61-7.63ZM301.59,116.06h1.91c2.12,0,8.62,1.71,10.03,2.39.62-.3,2.39-.94,3.38-.98l4.96.1s2.66.55,3.48.83c1.24.41,2.51.04,2.51.04l2.86-.07c1.56,0,1.25,1.51,3.83,1.51h.47c1.76,0,1.11,1.43,2.86,1.43h1.44c.29,0,.52.04.72.13.09.05.19.09.28.15.09.06.18.13.26.19.25.21.47.45.79.71.11.08.22.17.34.25,1.07-.25,1.09-.48,2.39-.48,1.17,0,1.9-1.06,1.9.95,0,6.75,8.98,10.66,10.08,19.58l.44,4.78v3.81c0,3.06.94,3.64.94,6.69v.48c0,3.8-3.34,9.43-3.34,13.85v.48c0,2.39-.95,3.35-.95,5.73,0,.98-2.17,4.03-3.09,5.25-.11.15-1.01.52-1.01.52l-1.7.36s-.4.08-.72-.07c-3.92-1.81-13.11-2.09-12.53-6.53l.43-4.78v-2.39c-1.97,1.45-1.81,6.01-3.63,7.85-.07.07-.14.13-.22.2-.15.12-.32.24-.5.32-.27.13-.57.21-.92.24v-2.86c0-6.13,2.86-10.7,2.86-14.33v-3.82c.05-3.02-9.55-5.7-9.55-9.55,0-1.39,2.95-3.15,5.02-3.75.55-.23,1.38-.25,1.85-.28-1.22-1.81-3.52-2.87-3.52-5.53v-.48c0-4.01-1.58-5.2-4.97-6.01-4.58-1.09-3.92-3.25-6.5-4.97-.37.19-1.66.87-3.08,1.47-1.73.74-3.63,1.39-4.07,1.39h-.48c-1.54,0-2.39-1.74-2.39-3.34v-.48c0-1.28.24-1.31.49-2.39-.65-.05-1.42-.52-2.2-1.2-.17-.15-.34-.32-.52-.49-1.81-1.79-3.49-4.49-3.49-5.47,0-.9,1.76-1.43,2.86-1.43M267.11,162.29c2.15-2.75,5.24-5.63,5.84-10.89.22-1.92,3.47-10.8,4.29-12.42,1.41-2.79,4.66-8.11,8.6-8.11h.96c.43,0,.81-.22,1.16-.58.29-.29.6-.65.8-1.12.94-2.16,2.51-3.72,3.4-4.15,1.54-.73,2.36-.58,2.36-.58,1.1,0,2.34.43,2.3,1.65-.07,2.49-1.2,4.79-1.7,8.14-.13.87-.27,3.9-.19,4.56.22,1.89.58,5.35.76,6.86.04.4.08,1.17.08,1.17,0,0,.68.98,1.37,2.46.87,1.87,1.79,4.38,1.99,5.06.71,2.44,1.99,6.25,1.99,9v.48c0,1.12-.79,1.9-1.91,1.9s-1.05-.37-1.91-.95c.47,5.7,8.23,16.27,14.88,18.95.96.39,2.57,1.07,2.78.63,1.43-2.8,5.24-4.77,9.07-4.77h1.43c.79,0,1.44.29,1.44.95,0,.1-.51,2.02-.9,2.36-.55.43-.9,2.17-1.03,2.44l4.04,2.97,3.43,3.06.19.16s1.02.92.91,1.18c-.11.26-1.05.8-1.11.84-.81.46-1.32.86-2.66.86h-.96c-4.44,0-9.77-2.33-12.89-3.83-.7.38-1.14.72-1.93.88-.27.06-.57.08-.93.08h-9.08c-.42,0-.85-.02-1.28-.06-.43-.03-.86-.08-1.28-.17-.44-.07-.87-.17-1.3-.27-.14-.03-.31-.07-.46-.12-.47-.13-.94-.27-1.41-.44-.21-.07-.42-.14-.64-.23-.47-.17-.93-.37-1.39-.57-.25-.11-.5-.23-.75-.36-.48-.23-.98-.49-1.46-.76-.21-.12-.4-.23-.61-.36-.38-.22-.75-.44-1.11-.68-.36-.24-.72-.47-1.07-.71s-.69-.49-1.01-.73c-1.49-1.11-2.78-2.24-3.8-3.27-.25-.26-.51-.51-.76-.8-1.29-1.37-2.6-2.94-4.05-4.43-2.89-2.98-6.31-5.63-11.07-5.63-2.39,0-4.72,3.81-6.21,3.81-.09,0-.18,0-.27-.02-.18-.02-.34-.06-.47-.11-.21-.08-.4-.2-.54-.35-.42-.4-.66-.98-.91-1.53-.06-.13-.07-.84-.01-1.07,1.04-4.12,2.65-7.41,4.98-10.39M291.09,225.43c0,1.79.32.9.48,2.86-.97-.71-1.44-1.09-1.44-2.86v-1.92c0-2.09.96-1.74.96-3.83v-.95c.76-.51,2.13-2.08,3.58-4.02.87-1.16,1.56-2.59,2.38-3.86.66-1.02,1.36-1.97,1.97-2.81.74-1.02.98-2.01,1.14-2.69h-1.43c-6.63,0-20.35,19.58-27.7,19.58h-3.82c-2.34,0-5.22-1.02-6.2-2.39l1.92.14,4.76-.61c1.9-.23,2.41-.69,3.82-1.43-1.76-2.63-6.59-5.45-8.96-7.76-2.06-1.99-6.8-6.87-6.8-10.39v-1.44c0-1.95,4.01-9.19,5.15-10.61,2.53-3.18,3.86-6.11,9.65-6.11-.49-1.84-2.52-3.34-4.77-3.34h-.96c-2.07,0-1.47.76-3.81.95.28-3.36,4.54-3.81,8.11-3.81h.95c2.22,0,1.44.88,4.29.95.12.17,9,8.81,12.06,11.35,3.32,2.82,11.97,5.85,18.03,5.85h2.88c.77,0,1.43.29,1.43.95,0,3.68-6.65,11.67-8.96,13.97-3.39,3.4-8.71,7.8-8.71,14.21M322.7,238.78c0-.35-.05-1.04-.11-1.53-.06-.49-.22-.76-.33-1.32-.21-1.08-.5-2.23-.87-3.17-.46-1.21-1.03-2.09-1.66-2.09-1.01,0-2.39,2.89-2.39,4.3,0,0-.06,2.21-.02,2.46.04.25-.13.83-.36.8-.31-.06-1.01-.3-1.05-1.34v-2.87c0-1.57-.65-4.29-1.91-4.29-2.53,0-3.81,5.26-3.81,8.11,0,0-.05,1.95-.08,2.3-.03.35.13,1.23.08,1.39-.05.17-.1.4-.43.44-.33.04-.34-.3-.44-.42-.1-.11-.19-.85-.09-2.28.07-1.16-.54-8.6-1.91-8.6-1.12,0-1.92.8-1.92,1.91v1.42s0,.19-.17.34c-.1.08-.27.21-.4.22-.38.02-.43-.44-.47-.63-.24-1.28-.97-2.3-2.31-2.3-1.54,0-2.25,1.58-2.48,3.26l-.4.99c0,.36-.27.99-.27.99-.44-.02-1.15-.91-1.15-1.68v-1.65c0-14.29,9.23-20.62,10.38-28.09.04-.28.3-.78.51-1.11.1-.16.19-.47.44-.43.55.09.5,1.6.5,1.6l-.22,9.88c.29,1.49.48,1.03.81,2.39.31-.23.62-.61.93-1.11.29-.45.71-1,.98-1.61.61-1.39,1.02-3.1,1.39-4.69.32-1.36.51-2.64.51-3.58v-2.26s.14-2.67.47-2.89c.28,0,.67.76.69,2.13,0,.34.28,2.55.28,2.55,0,5.06,5.24,6.96,5.24,13.37v3.35c0,1.56,1.6,3.95,2.2,6.4.66,2.65,1.14,4.83,1.14,7.92,0,.5-.07.8-.2,1.01-.22.33-.41.33-1.01.4M364.15,207.76c0,7.36-19.1,16.97-19.1,18.14,0,1.52,4.92,2.73,6.69,2.87-.28,1.06-.11,1.43-1.43,1.43-14.13,0-13.17-13.85-23.87-16.72,0,5.1-.69,3.36.39,7.73,1.06,4.36,3.91,4.99,3.91,5.64,0,.43-.54.95-.95.95-3.45,0-6.69-7.94-6.69-12.41v-.96c0-7.16-6.58-12.19-6.69-16.7h4.3c3.06,0,3.64.95,6.69.95h1.91c4.09,0,12.76-3.98,15.15-5.86,1.63-1.29,12.13-7.52,13.98-7.52h2.38c1.77,0,2.16.47,2.86,1.45-2.82,1.34-5.29,1.02-7.16,3.81,3.37.07,6.93,3.92,7.12,7.17l.51,9.55v.48Z"/>
    <path d="M334.55,169.07c0,.28-2.15,3.18-2.55,4.14-.72,1.69-.83,3.14-1.75,4.46,0-6.2,1.27-8.11,2.39-12.9,1.13.83,1.92,2.39,1.92,4.3"/>
    <path d="M355.07,150.45v-.48c0-7.09.06-9.24-3.54-14.62-1.46-2.19-3.32-3.51-4.27-5.27-.99-1.48-1.52-2.86-2.09-4.31-.32-.81-.25-2.32-.5-2.42-.25-.1-.82-.06-.94-.03-.06,0-.11.02-.15.04-.05.01-.09.02-.14.04-.08.03-.16.05-.25.08-.04.01-.07.03-.11.04-.07.03-.15.05-.23.07-.04,0-.07.02-.12.03-.08.02-.18.04-.28.05-.11,0-.21.01-.33.03-.12,0-.27.01-.43.01h-.48c-1.76,0-1.12-1.44-2.86-1.44h-.95c-1.76,0-1.11-1.43-2.86-1.43h-1.45c-1.75,0-1.11-1.43-2.86-1.43-2.11,0-3.39.58-4.67.42-1.69-.22-2.33-.9-4.88-.9,0,0-4.16-.15-4.72.18-.21.12,1.34.98,1.47,1.28.14.33,1.59,1.27,1.59,1.27,0,0,1.3.96,1.51,1.21.21.25-.69.17-.9.05,0,0,0,0,0,0-.22-.11-.44-.23-.68-.36-.24-.12-.49-.25-.76-.4-.26-.14-.56-.29-.83-.44-.3-.14-.59-.3-.9-.46-2.03-1.04-4.41-2.16-6.58-2.91-.16-.05-.31-.11-.47-.16-2.36-.66-6.1-.88-6.1-.88h-2.14s-1.08.01-.95.46c.92,3.32,3.27,5.05,6.14,6.43-.3,1.31-.95,1.94-.95,2.86,0,1.46.41,1.82.91,2.75,0,0,.54.4,1.44,0,.44-.19,1.84-.61,3.16-1.23,1.36-.63,2.69-1.34,3.07-1.52-1.03-1.55-2.19-1.94-4.14-2.4-.12-.03-.35-.33-.49-.48-.15-.14-.07-.26-.07-.26,0,0,.04-.12.18-.1.07.01,1.16.06,2.33.29.58.11,1.18.27,1.61.4.35.1.74.41.82.52.94,1.29,1.45,1.36,2.51,3.39,1.23,2.35,2.19,2.6,3.75,3.12,4.19,1.39,5.7,1.22,6.4,6.51.87,6.58,9.23,7.63,9.55,17.02,0,.06-.33.18-.56.18-.22,0-.41-.12-.43-.47-1.31-12.67-11.42-7.51-11.42-5.74,0,1.27,9.28,8.45,10.99,8.59l.27.42s-.08.3-.18.37c-.1.07-.27.19-.35.21-3.79.6.74,6.78.74,10.47l.12,4.22-.27,5.46c0,1.75,3.44,2.48,4.96,2.71,2.56.36,4.21,1.46,5.69,1.46h2.39c3.04,0,4.77-7.81,4.77-11.46,0-4.24,3.35-9.25,3.35-12.89,0-3.02-1.44-4.71-1.44-8.12M339.32,164.77l-1.45-1.44.59-2.36s.55-.32.69-.29c.14.03.13.38.13.38-.32,1.36-.45.71-.45,1.8,0,1.02.16.63.48,1.92M340.75,166.2s.25-1.2.39-2.18c.14-.98.14-2.1.14-2.1l-.62,1.17s-.28.22-.5.2c-.22,0-.53-.03-.53-.03l.58-1.37.69-1.34.41-.24s.35.01.39.17c.04.16.48,1.09.48,2.38,0,1.67-.47,2.64-1.44,3.35"/>
    <path d="M324.03,186.26s-.89.04-1.35,0c-.47-.04-.59-.29-.59-.29,0,0-.12-.54.08-.53.43.02,1.02-.11,1.86-.14-.14-.22,0-1.9,0-1.9,0-1.66,1-.64,1.58-2.83l-1.58-.04c-3.59,0-6.65,2.1-8.11,4.3,0,0-.08.16.17.26,1,.39,3.7,1.26,3.81,1.31.14.06-.12.31-.12.31,0,0-.2.12-.4.09-.2-.03-3.46-.54-3.46-.54-6.34-1.01-10.02-4.86-13.5-8.94-1.92-2.26-7.03-11.24-7.03-14.93,0-2.02-4.39-2.39-5.78-6.67-.26-.81-.21-1.71-.21-2.84,0-1.36.74-1.47.74-1.47,0,0,.45-.15.48,1.43v.48c0,2.9,2.04,4.89,3.92,6.11,2.57,1.68,3.75,4.5,5.15,4.87l-.41-5.25c-.39-3.22-2.71-6.24-2.91-9.26,0-.1-.1-.36-.24-.48-.61-.52-2.25-1.92-2.28-2.08-.04-.2.35-.09.47-.14.12-.04-.35-5.71-.35-5.71v-6.69c0-3.51,1.61-4.78,1.61-7.68,0,0,.04-.33,0-.88s-.95-.51-.95-.51l-.21,1.58c-.17,1.11-1.31,3.73-1.84,5.61-.04.15-.08.31-.18.4-.09.07-.32.1-.49.04-.32-.11-.22-.73-.22-.73l1.46-4.55.61-2.27c-2.25.38-4.56,2.9-4.56,5.17,0,2.05.95,2.45.95,5.73l-1.68-3.74c-.61-.65-.59-1.04-1.65-1.04h-.48c-6.39,0-11.23,14.08-12.39,20.09-1.92,9.88-10.53,13.3-10.53,21.46,0,.43.53.96.95.96.22,0,3.45-2.54,4.2-2.96,2.51-1.41,2.62-.38,5.35-.38,7.51,0,14.24,19.1,31.03,19.1h5.26c1.84,0,1.96-.26,2.39-1.43,6.08.51,8.91,4.3,16.23,4.3.93,0,.68-.15,1.63-.41.08-.02.22-.36.14-.44-.5-.58-1.57-1.85-2.86-3.11-1.51-1.46-3.28-2.73-3.69-2.73M289.66,139.47c-.06,2.26.47,1.88-1.43,2.38,0-2.26-.4-1.89,1.43-2.38"/>
    <path d="M341.71,264.58c.85,1.61,1.68,4.89,1.97,7.16l.42,5.26v1.44h2.86c1.1,0,1.43-.34,1.43-1.44v-7.64c0-2.13-3.17-8.12-4.77-8.12-.4,0-.7.57-.99,1.27-.29.71-.08,1.32-.92,2.07"/>
    <path d="M328.82,270.33c-.22.29.13,13.37.13,13.37l-.61,8.1c-.07.91.91,1.91,1.43,1.91,1.11,0,5.83-3.92,5.79-5.26l-.57-9.07-.61-11.12s-.13-.21-.36-.17c-.4.07-1.38.15-2.48.61-.86.36-1.77,1.03-2.72,1.62"/>
    <path d="M263.87,268.41c0,1.8,3.15,8.12,4.29,8.12,4.42,0,9.55-11.29,9.55-15.76,0-1.74-1.32-3.82-2.86-3.82h-.95c-3.98,0-10.02,6.7-10.02,11.46"/>
    <path d="M335.5,271.75l.49,8.6v3.35c-.03,1.02-.01.75.47,1.43.21-.14.43-.28.67-.42,2.36-1.42,6-3.11,6-6.26l.19-.99-1.15-7.61c-.27-1.82-1.06-5.22-2.44-6.61-.21-.21-.43-.37-.66-.47-.2-.12-.24.03-.24.03,0,0-.02.31-.04.51-.43,3.25-3.5,5.75-3.29,8.45"/>
    <path d="M271.6,275.88c.07.19.23.61.33.86,1.29,3.12,5.06,10.3,6.27,10.3.69,0,2.93-2.92,2.92-3.83l-.53-9.08c-.22-3,3.34-8.92,3.34-9.07,0-.58-.99-1.43-1.91-1.43h-1.43c-3.49,0-3.66,7.01-8.05,11.48"/>
    <path d="M290.61,269.36c-.22,1.79-.65,1.81-.99,4.3l-.43,4.78v11.46c0,2.65,5.21,6.69,6.21,6.69.32,0,1.78-1.5,2.39-1.91l.02-.96.49-4.3.45-9.07v-8.12c0-1.87-4.52-3.82-6.21-3.82-.78,0-1.52.57-1.92.95"/>
    <path d="M319.74,276.05l.48,9.55c.18,2.56-.96,5.96-.96,8.12,0,1.68,3.52,2.39,5.25,2.39h1.44c.18,0,.73-1.08.95-2.87l.96-9.07v-10.5c0-2.13-1.91-4.19-3.8-4.19-.48,0-2.09,3.25-3.65,5.17-.53.66-.68,1.29-.67,1.4"/>
    <path d="M281.54,273.66l.48,11.46c.11,1.68.51,5.73,1.91,5.73,1.7,0,4.3-.21,4.3-1.91l-.15-7.66.62-7.16c.22-2.57,1.43-4.29,1.43-5.25,0-.89-3.08-3.34-4.3-3.34-2.01,0-4.44,5.82-4.3,8.12"/>
    <path d="M309.24,280.83l.18,6.23-1.05,7.48s.18.63.47.71c.28.08,1.12.7,3.72,1.5,2.59.8,4.18.78,4.18.78.25-.13.35-.45.47-.78.98-2.71,2.37-9.53,2.18-12.12l-.6-4.76c-.43-3.54-2.39-10.03-5.73-10.03-.54,0-1.44,1.03-2.36,2.04-.73.8-1.53,1.55-1.79,1.94-.14.21-.25.41-.33.62-.72,1.83.65,3.61.65,6.39"/>
    <path d="M300.16,272.23l-.47,11.46.09,1.19-1.05,9.31c-.18,1.51,4.21,4.29,5.25,4.29h.96c1.07,0,1.05-.37,1.91-.95v-.95c0-1.66.74-2.42.99-4.77l.44-6.21v-5.25c0-2.33-2.73-10.99-4.3-10.99-1.79,0-3.72,1.26-3.82,2.87"/>
    <path d="M355.55,321.89c1.95,0,17.43-4.12,19.87-4.96,3.22-1.1,6.68-1.63,9.69-2.73,2.47-.91,6.73-2.57,9.2-3.21,10.01-2.59,26.98-9.84,34.31-14.88,2.15-1.47,4.27-4.33,5.57-6.85.76-1.47,3.9-6.66,4.81-7.62,2.14-2.31,3.47-4.54,5.49-6.92,1.72-2.03,4.24-4.23,6.21-6.21,3.76-3.76,8.77-8.88,13.25-11.58,3.15-1.9,12.55-7.55,16.71-7.64-3.54,2.46-9.46,4.1-13.75,7.27-4.29,3.16-7.77,4.99-11.68,8.85-2.01,1.99-7.63,8.88-9.24,11.3-3.01,4.55-5.23,7.79-7.82,12.7,5.46-1.27,16.92-17.63,22.62-21.79,4.69-3.41,7.59-6.47,13.13-9.32,2.52-1.3,3.98-2.43,7.4-3.58,1.21-.41,7.95-2.09,8.9-2.09h.95l6.69.42c6.65.61,10.72,2.96,15,6.08,2.26,1.65,9.36,8.79,9.36,11.65,0,2.16,1.18,5.69.95,7.64l-.57,5.72c-.69,6.71-5.67,14.72-10.12,17.97-4.62,3.37-11.38,8.78-18.91,8.78h-4.3l-16.7-1.48-7.17-.17-.95.22-4.78.43c-4.34.55-9.12,2.12-12.12,4.15-1.76,1.17-6.49,7.04-6.49,9.27,0,4.45,3.23,10.51,7.64,10.51h3.34c2.39,0,4.67-2.31,6.21-3.34.07-3.25.95-1.49.95-3.34v-2.39c-.14-.9-1.3-2.65-1.91-2.39-2.01.88-4.76,4.3-4.77,4.3-.43,0-.95-.53-.95-.96,0-3.18,4.85-6.68,8.6-6.68h1.43c2.65,0,8.97,1.61,10.98,2.39,3.4,1.3,7.01,1.71,10.99,2.39l6.65,1.15,9.58-.19c9.29,0,21.41-6.3,26.39-10.85,3.2-2.93,6.51-6.2,8.47-10.16,1.26-2.53,4.77-10,4.77-13.38v-.48c0-1.59.72-2.48.96-4.77l.62-5.24c.88-9.92-7.04-21.87-11.21-27.14-3.96-5-4.2-5.67-9.74-9.36-2-1.33-10.64-6.02-13.09-6.02s-2.6-.73-5.25-.95l-7.17-.47c-14.38-1.23-33.05,10.57-39.99,17.29-3.11,3-4.08,4.17-6.69,7.64-2.45,3.25-4.52,4.52-7.15,7.17-3.61,3.65-11.02,10.18-15.29,12.88-11.39,7.21-24.45,14.02-39.77,17.05-7.09,1.4-15.81,4.54-23.36,5.3-7.46.75-15.45,4.09-22.92,5.24l-7.13,1.12-.98-.16c-1.99,3.75-2.29,4.16-7.08,5.35-2.48.61-7.45,2.07-10.12,2.29.47.64,2.54,1.92,3.34,1.92,1.23,0,2.51.56,3.34.95.99-.47,6.82-1.59,8.5-2.01,3.2-.78,4.72-1.38,7.68-2.35,5.82-1.91,6.11-4.83,14.39-5.67,7.21-.72,11.49-3.12,16.7-3.83,4.11-.56,13.04-3.82,16.23-3.82,1.7,0,7.84-2.39,9.55-2.39h.48c2.61,0,2.65-.95,5.25-.95,2.11,0,4.83-.79,7.43-1.7,1.17-.41,2.17-.63,3.22-1.02.87-.32,1.83-.83,2.54-1.06.86-.28,5.15-2.13,5.71-2.31-.41.13-4.38,2.53-5.08,2.93-.78.44-1.8.9-2.94,1.34-3.84,1.48-9.08,2.77-11.37,2.77-2.6,0-2.64.96-5.25.96-2.32,0-3.92,1.44-5.73,1.44-3.68,0-13.29,4.3-17.2,4.3-4.5,0-12.3,4.3-18.14,4.3-7.67,0-8.64,3-13.2,4.93-1.73.73-12.44,4.14-14.01,4.14h-1.44c.11.3.56.71,1.23,1.18.67.47,2.08.7,3.07,1.22,1.69.89,3.15,2.04,4.79,2.63,1.22.43,2.26.71,2.86.71,2.84,0,7.54-1.91,10.02-1.91h.95c2.49,0,5.78-1.91,8.6-1.91"/>
    <path d="M199.14,288.35c-1.25-.83-2.58-1.68-3.96-2.35,1.38.68,2.71,1.53,3.96,2.35"/>
    <path d="M211.81,295.6s1.5-1.68,2-2.68c.5-1.01,2.43-3.01,2.24-3.28-.18-.27-3.28-.23-3.28-.23-3.75,0-5.6,2.87-7.16,2.87h-.96c-3.26,0-9.21-6.54-16.7-7.17,0,0,.39-.52.84-1.04.4-.46.86-.91.93-1.02.15-.22.24-.74.24-.74v-.48s-.06-.28.11-.85c.13-.44,1.35-1.74,1.89-2.29.16-.16.14-.38.14-.38h-1.18c-4.04,0-4.67,5.37-8.71,5.37h-2.39c-1.74,0-3.83,1.32-3.83,2.86,0,1.01.18.63.48,1.91-1.17-.43-1.42-.76-1.42-2.6,0,0,0-1.02.21-1.19.22-.17-3.76-.72-4.5-.77-.73-.06-2.51-.13-2.47.43,0,1.13,2.66,1.48,4.92,2.95.7.46,1.36.99,1.95,1.55,2.82,2.68,6.56,3.72,6.56,4.89v1.44c0,3.38,1.51,5.56,4.3,6.2-.13-1.49-.49-1.69-.49-3.34,0-.93.14-.94.47-1.52,0,0,.02-.62-.35-1.12-.36-.48-.82-1.09-.82-1.09,3.2.15,5.86,1.34,8.82,1.34h4.77c.25,0,.49.01.7.02.12,0,.23,0,.35.03.17,0,.34.03.51.04.14.02.29.04.43.07.2.03.4.07.57.1.04,0,.06.01.07.01.14.04.27.07.4.11.08.03.17.04.25.07.13.04.25.08.37.13.67.24,1.26.54,1.78.9.11.07.22.15.32.23,1.78,1.33,2.75,3.22,3.76,4.76.09.13.16.25.24.36.73,1.07,2.54,2.47,2.8,2.17.26-.3.3-4.71.3-4.71.12-.87-1-1.83-1.63-2.59-.54-.66-.7-1.18.72-1.35.24-.03.69-.03.88-.06.18-.03.54-.33.54-.33M192.24,292.29c-2.72,0-3.76-.96-5.73-.96h-.63s-.45-.18-.51-.26c-.47-.61-.76-.7-.76-1.65,0-1.1.33-1.43,1.44-1.43,2.62,0,8.97,2.15,9.55,4.3h-3.34Z"/>
    <path d="M192.81,291.22c-.57-.81-1.79-1.33-2.96-1.33-2.21,0-1.43-.88-4.29-.95,0,0-.24.12-.25.47-.02.34.25.48.25.48,0,0,1.82.58,2.28.58.47,0,4.86,1.17,5.28,1.08l-.32-.34Z"/>
    <path d="M264.07,335.9c.5,0,2.95-.69,7.1-1.86,3.85-1.08,4.62-1.95,8.94-2.59-.64-.87-4.39-2.87-5.73-2.87-3.72,0-12.95,4.3-16.71,4.3-.24,0-9.21,2.99-10.9,3.43-2.26.6-9.06,3.25-11.07,3.25-1.65,0-.72.96-2.39.96-.57,0-8.49,2.48-10.02,2.87-1.23.32-9.53,2.86-9.55,2.86-5.37,0-21.84,7.64-27.69,7.64-1.66,0-.73.95-2.39.95s-10.17,2.44-12.23,3.05c-3.8,1.14-7.92,2.21-12.09,2.71-6.67.8-18.02,4.27-25.34,4.27h-.95l-7.14,1.14c-1.84.12-2.73,2.15-2.89,4.12l8.11-.53c3.15-.21,5.95-.92,9.08-1.38l4.29-.54s-3.62,1.24-5.2,1.72c-1.58.49-4.18.66-4.18.66l-10.66,1.1s-15.17,2.44-15.73,2.55c-.56.11-.94-.25-1.62,0-.88.65-3.2,7.21-3.92,9.51-.15.47-.23.98.52.55,1.67-.51,3.3-1.39,5.16-2,2.28-.76,4.24-.98,6.44-1.67,4.04-1.27,8.61-2.21,12.48-3.77,3.73-1.5,8.07-2.77,12.12-4.12,2.64-.87,10.05-4.74,11.28-3.04-8.29,4.39-41.4,14.38-44.89,19.59.88.46,5.01,3.41,6.58,4.43.33.22.84.25,1.12.08,1.99-1.16,8.81-5.91,10.38-6.5,4.48-1.7,7.42-3.04,12.79-4.88,4.23-1.45,23.71-7.46,27.4-7.46,1.66,0,17.04-4.09,19.05-4.82,2.29-.84,16.34-5.68,18.19-5.68s4.96-1.92,7.16-1.92,16.78-4.93,21.3-5.91c7.16-1.56,13.95-3.86,21.1-5.64,6.33-1.58,15.85-3.37,21.6-5.64,2.7-1.05,18.18-5.74,21-5.74,1.36,0,.86-.15,1.43-.96,0,0-3.05-1.89-5.79-2.61-2.74-.72-7.65-3.46-7.65-3.46-1.58.31-5.85,1.66-10.02,2.85-4.3,1.22-8.5,2.22-9.5,2.26-2.6.11-3.58.66-6.51,1.57-5.29,1.63-12.05,4.06-14.8,4.83-7,1.94-13.51,4.56-21.01,6.69-7.81,2.21-14,3.97-21.49,6.21-.63.18-1.67.51-2.98.91-.54.17-1.01.46-1.62.65-.27.08-1.12.19-1.4.28-1.27.39-2.2.67-3.59,1.09-5.18,1.55-10.67,3.1-12.08,3.1-2.08,0-1.73.96-3.82.96-3.16,0-6.63,1.88-8.47,3.47-1.7,1.48-5.71,3.07-7.77,4.16-4.16,2.22-12.1,5.03-17.19,6.22.78-2.14,10.41-4.3,12.96-5.18,3.55-1.24,8.59-4.06,11.59-6.08,5.17-3.49,6.59-2.86,12.99-4.68,2.3-.66,12.62-3.63,14.03-3.63,1.66,0,.72-.96,2.39-.96,2.85,0,13.6-4.23,17.28-5.16,6.51-1.64,11.36-2.88,17.16-4.81,1.95-.65,7.69-2.95,14.23-5.1,4.57-1.5,9.73-2.8,13.4-3.9,3.17-.95,5.53-1.58,6.22-1.58l2.11-.32Z"/>
    <path d="M509.95,381.6l-1.23-1.41c-3.57-2.18-3.8-3.36-9.44-3.36h-.49c-3.8,0-5.13,2.86-9.54,2.86h-.95c-1.98,0-2.99-.3-3.82-1.43,0,0-.39-.48,1.43-.48h1.91c1.55,0,.62-.73,2.39-.94.78-.3-.68-1.18-.99-1.31-2.62-1.13-4.1-3.47-9.51-3.47h-.95c-7.27,0-12.54-5.73-18.62-5.73h-1.91s1.87,2.03,3.19,2.87c.87.55,1.68,2.28,1.68,2.28-7.32.1-7.55-7.07-13.48-7.07-.87,0-.55.97-1.43.97-.11,0-5.6-5.25-11.46-5.25h-1.43s1.09,2.15,2.3,2.73c1.04.49,1.77,2.29,1.77,2.29-3.25.16-6.77-3.17-8.49-4.9-1.41-1.43-5.75-4.9-7.99-4.9-1.29,0-1.33-.23-2.4-.48,0,0,1.08,2.35,1.63,2.99.55.63,1.05,2.6,1.05,2.6-1.64-.33-2.83-1.29-4.09-2.14-1.41-.94-2.1-2.21-3.03-3.33-1.55-1.86-3.02-3.46-5.11-3.46h-.47c-2.62,0-4.69,2.39-10.03,2.39,0,0,1.5-1.97,2.33-2.38.6-.29,2.1-1.77,2.1-1.77-2.61-.73-4.06-2.21-6.83-2.54l-4.77-.61-1.92.13c-1.81,0-4.77,1.07-5.59,1.48-1.3.64-4.74.68-5.38.63-.64-.05-.86-.61-2.88-1.16,0,0-.37-.22-.39-.43-.02-.21.56-.4.56-.4,0,0,3.08-1.06,4.12-1.05s3.87-.82,3.87-.82c-.95-1.41-4.33-3.04-6.26-3.04h-2.38c-1.74,0-.45.77-2.39.96l-5.84.53s-1.35-.07-1.35-.54.75-.33.75-.33c1.63,0,4.54-.83,4.54-2.05,0-1.09-8.83-3.83-10.99-3.83h-2.38c-2.15,0-5.49,2.39-7.64,2.39h-.48c-2.2,0-3.36-.21-3.82-1.92,2.04-.17,2.43-.26,2.87-1.91-1.65-.38-5.21-2.21-6.94-3.08-2.83-1.44-5.03-1.52-7.38-2.64,0,0,.79,1.99,1.71,2.69,1.19.88,1.84,2.89,1.84,2.89-2.7.01-6.53-2.6-8.12-4.57-1.34-1.67-5.68-5.78-7.38-5.78h-1.43c.33,3.97,1.84,2.36,1.91,5.72-2.74-.29-8.08-8.82-14.32-9.55l-4.77-.61-1.93.13c-1.08,0-3.23-1.51-3.82-2.38,0,0-1.11-.77-4.07-.96-.87-.06-1.52.18-1.52.18l-.6.33c-2.89-1.95-5.61-4.34-10.52-4.34h-2.39s-1.68-.65-3.76-2.08c-2.57-1.76-6.25-3.17-7.69-3.17h-.96c-1.12,0-1.23.14-1.92.47-2.22-1.49-5.4-3.34-9.07-3.34h-1.43c-3.05,0-3.63.96-6.69.96h-.94c-1.87,0-3.55-.37-4.78-.96,0,0,2.04-1.1,2.83-1.29.8-.19,2.82-1.29,2.82-1.29-.55-2.18-4.77-3.63-7.57-3.63h-.95c-4.06,0-5.96,1.44-9.55,1.44h-2.4c-1.32,0-1.14-.37-1.43-1.44,0,0,2.32-.61,3.54-1.07,1.22-.46,2.85-1.39,2.85-1.39-2.53-1.03-4.17-2.79-7.34-2.79-1.89,0-1.25-2.17.17-4.74,1.01-1.82,3-4.59,3.27-5.38.27-.79,2.13-2.53,2.29-2.77-2.14-.58-2.43-1.4-6.01-2.11-2.48-.5-4.62-.77-7.37-.77-6.27,0-13.52,6.22-14.79,6.22-.62.05-1.1-.88-2.31-1.66-.91-.59-1.96-1.13-2.95-1.21.08-3.62,2.84-5.24,3.39-7.06.48-1.59-5.9-3.44-8.16-3.44v-3.34c0-2.09-.95-1.74-.95-3.83v-3.34c0-3.02,1.43-3.54,1.43-5.73v-.48c0-1.39-1.84-4.89-2.34-6.26-1.65-4.63-.55-2.34-5.3-2.34h-1.91c-1.76,0-1.23-.07-2.39.48-1.11-.25-1.41-.48-2.86-.48-10.31,0-27.46-10.02-37.72-12.41.31-3.77,5.37-3.76,7.16-6.21l-3.81-.56-.49.08-9.05-1.12-3.36.16c-2.16,0-1.55-.88-3.82-.96l-20.05-.61-15.29.14c-1.64,0-1.84.35-3.34.47,1.79,2.44,19.65,13.12,23.71,15.44,4.33,2.49,8.43,4.37,12.74,6.84,1.96,1.13,11.49,6.51,12.74,6.84,0,0-.25-1.97-.74-3.41-.6-1.77-.9-3.22-.9-3.22,4.24.94,13.47,3.4,22.22,6.58,10.34,3.76,20.01,8.51,20.01,12.94v2.39c0,3.69-2.77,7.17-6.21,7.17h-1.92c-6.44,0-18.55-5.32-24.53-6.98-3-.83-23.22-6.96-23.22-8.3,0-1.44,6.14-4.81,7.17-6.21-1.94-.15-5.91-1.56-9.12-1.77l-2.35-.14-16.2-2.17-20.57-1.69-2.86.04-12.4-1.15-12.91.19c.68,1.9,6.33,3.73,8.3,5.06,2.75,1.84,5.42,2.96,8.04,4.85,2.23,1.59,5.84,2.94,8.3,4.61,2.71,1.84,5.62,2.69,8.5,4.38,5.82,3.44,10.68,6.39,17,9.27,4.5,2.05,12.91,7.61,17.18,8.6,0,0-2.16-4.08-2.53-4.56-.37-.48-1.6-2.89-1.6-2.89,4.16-.18,6.29.9,9.3,1.81.62.18,8.1,2.78,8.21,2.78,2.96,0,17.16,5.98,20.58,7.11,6.95,2.27,12.84,3.98,14.95,10.95.1.33-.02,1.59-.17,1.87-1.63,2.94-3.76,5.86-8.15,5.86h-.48c-12.98,0-28.52-8.75-40.11-11.46.96-3.58,4.22-4.43,5.74-6.69,0,0-3.55-.46-4.02-.49-.47-.03-1.02.02-1.23.02-1.92-.03-14.53-1.48-15.97-1.47-1.44.02-3.14.04-3.14.04l-10.49-1.15-16.23-.44-5.74.15c-1.29,0-1.33.23-2.39.48.62.54,5.78,3.19,6.87,3.65,3.09,1.27,3.76,2.26,6.44,3.58,4.19,2.06,8.38,5.34,12.68,7.86,8.57,5.03,17.87,9.93,26.54,14.52-.18-2.27-2.39-5.24-2.39-6.21,0-.68.65-.96,1.44-.96,2.07,0,1.73.96,3.82.96,2.86,0,20.36,6.35,22.92,7.64,3.76,1.89,6.32,3.44,9.86,5.41,3.98,2.22,4.78,5.77,7.32,7.48,0,0,4.16-.98,4.74-1.35.58-.37,2.5-.82,3.18-.9.69-.08,2.55-.72,2.55-.72-.1-1.38-.45-1.59-.45-3.23v-1.91c0-3.82,7.04-10.25,9.55-11.94,0,0,.16-.63.27-1.19.1-.56.08-1.22.08-1.22,2.04,1.31,4.06,1.94,7.29,1.94l.58-4.29-.11-1.45c0-1.1.33-1.43,1.44-1.43h3.35c1.09,0,1.43.33,1.43,1.43v1.92c0,2.15,3.8,9.69,5.11,11.11,1.62,1.76,7.21,6.27,9.68,6.55l5.24.61,1.46-.14c-.15-.29-.9-1.61-1.47-2.95-.54-1.27-.62-1.54-.92-2.78-.3-1.25,0-4.3,0-4.3,0-1.62,1.23-3.34,1.44-5.73,1.71.46,4.3,2.87,6.69,2.87h3.81c3.13,0,6.45-2.2,7.17-2.39.72-.19,1.44,0,1.44,0,0,0-.91.98-1.61,1.83-.71.85-2.05,1.7-2.05,1.7,1.09,1.52,8.02,4.94,12.73,5.06,3.67.1,9.65-3.83,11.94-3.83.43,0,.95.54.95.96,0,1.19-4.31,3.5-5.72,3.82,0,0-.71.9,0,.96.73.06,2.99.95,5.72.95,1.06,0,4.44-2.99,5.72-2.86,1.37.14.88.14,1.44.95-2.44.05-3.78.9-4.77,2.39.79.42,5.81,2.11,6.03,2.52.22.41,4.99,1.77,5.91,1.77h1.92c4.08,0,5.94-1.9,10.02-1.9h.48c1.29,0,1.92.24,2.39.47.47.24.88.73,0,.97-.89.23-4.77,1.34-4.77,2.38,0,.67,8.01,3.34,9.55,3.34h1.91c3.66,0,3.8-1.84,7.16-1.91-.14,1.71-1.91,4.73-1.91,4.77,0,.77,6.29,3.69,7.17,3.83l8.08,1.11c2.9.29,4.58-3.28,7.19-3.51,0,0,.36,1.12-.17,2.14-.35.69-.6,1.64-.76,2.18-.15.52.32.66.32.66,2.61,1.37,9.09,5.05,12.56,5.05,3.09,0,5.72-2.38,6.68-2.38h2.87c-.71,1.95-2.75,2.53-3.34,4.77,2.23.18,2.36.95,4.78.95h2.86c3.02,0,3.54-1.43,5.73-1.43,1.66,0,.72-.95,2.39-.95,0,0,1.99-.28,2.86,0,.87.28,1.15.37,1.43,1.43-2.43,0-5.22,1.04-6.21,2.39,2.58,1.37,6.22,3.34,10.03,3.34h.47c1.84,0,.21-.66,2.39-.95l4.27-.61,2.41.13c1.36,0,.87.15,1.43.96-4.11.08-3.2,1.71-5.74,2.38,1.31,1.79,8.16,3.83,11.47,3.83h1.91c1.08,0,2.99,3.28,8.24,3.28l2.93-.22c.93,0,4.64,3.64,8.89,3.64h2.86c2.82,0,4.7-1.43,8.6-1.43h.95c1.66,0,1.85.35,3.35.47,0,0-.92.9-2.24,1.77-.84.55-2.19,1.2-2.46,1.23-.41.04-.17.36.09.61.18.17.95.36,1.33.51,2.35.84,6.75,4.01,9,4.01,2.66,0,4.36-2.86,9.55-2.86h1.91c1.32,0,1.15.36,1.43,1.43-2.4.06-5.69.92-6.2,2.86,0,0,1.69,1,3.06,1.53,1.37.54,2.69.33,2.69.33,3.56-.78,5.52-3.29,9.53-3.29,1.29,0,1.08,0,1.74.29,0,0,.84.58,1.08.7.25.12-.43.43-.43.43-2.35.21-4.7,1.27-5.26,3.35,1.71.41,2.25.96,4.3.96h2.86c2.54,0,3.2-1.91,5.74-1.91h1.92c3.32,0,4.19,1.74,6.68,1.43,1.37.07.58.67.19.98-.39.31-.46.26-1.3.29-.85.03-5.1.16-5.1.16-1.93,0-2.47.45-2.86,1.92,2.63.22,5.23,3.34,10.03,3.34h.47c8.33,0,12.02,4.77,18.15,4.77,4.44,0,10.53-5.82,13.84-6.2l4.77-.61c-.8,2.38-4.69,2.39-6.7,3.46-.6.32-4.76,4.35-4.76,4.79,0,1.09,6.44,2.87,8.12,2.87h1.44c2.8,0,4.16-2.93,6.21-4.3,0,0,.9-1.27,1.51-2.46.6-1.2.54-1.25.8-2.77.26-1.52-.24-2.4-.24-2.4M212.39,296.47c-.36.34-.79.46-1.04.59.57.86.94.84.94,1.91v6.21c0,4.13-5.96-3.15-6.57-3.93-2.72-3.49-1.82-4.66-8.71-4.66h-2.39l-6.19-.51c-.94-.06-1.02-.27-1.65-.61-.01.17.15.49.14.63-.02,1.26-.57,1.45-.42,2.4,0,0,.92,3.92.62,3.98-.85,0-2.06-.17-2.06-.17-1.8-.25-4.29-3.68-4.29-5.72v-2.86c-3.9-2.06-3.87-1.97-7.03-4.92-2.08-1.92-6.81-2.02-6.81-4.63,0-.47.84-1.47,1.91-1.45,0,0,3.07.09,4.52.27,1.46.18,3.28.71,3.43.61.47-.31,1.3-.88,2.55-.88h2.39c5.05,0,3.62-7.02,11.55-5.17-.05,2.05-1.43,2.81-2.42,5.35-.2.5-.15,1.01-.61,1.59.63.02,1.34.24,1.95.39.46.11.92.25,1.37.42.36.13.71.28,1.06.43.16.08.34.17.52.25.33.16.66.33.99.51.03.02.08.05.12.07.23.12.46.26.69.4.08.05.15.09.23.13h0c.07.06.15.1.23.15.25.15.5.31.75.47.33.2.64.41.95.62.31.2.62.4.92.61,1.95,1.29,3.7,2.37,5.08,2.37,1.54,0,3.16-2.64,6.21-2.86,3.05-.22,4.77,0,4.77,0,.79,0,1.43.29,1.43.95,0,.57-3.15,5.17-5.16,7.06"/>
  </g>
</svg>