<?xml version="1.0" encoding="UTF-8"?>
<svg id="Calque_1" data-name="Calque 1" xmlns="http://www.w3.org/2000/svg" viewBox="0 0 595.28 595.28">
  <defs>
    <style>
      .cls-1 {
        fill: #fff;
      }
    </style>
  </defs>
  <rect class="cls-1" width="595.28" height="595.28"/>
  <g>
    <path d="M253.9,435.64c-2.65,0-4.89,1.7-5.74,3.98l-11.69,29.58-1.04,3.37-.93-3.42-9.04-28.78-.1-.26v-.07c-.86-2.41-3.14-4.12-5.78-4.12h-14.59c-3.28.17-5.9,2.84-5.9,6.16,0,.88.42,2.04.7,3.14l1.91,6.02-7.16,18-1.13,3.33-.93-3.37-8.99-28.83-.14-.26v-.07c-.83-2.41-3.16-4.12-5.78-4.12h-14.6c-3.23.17-5.88,2.84-5.88,6.16,0,.88.36,2.04.73,3.14l21.84,65.13c.65,2.66,3.12,4.62,5.93,4.62s5.1-1.79,5.86-4.3l15.31-38.62,1.13-3.43.91,3.41,12.89,38.33c.66,2.66,3.05,4.62,5.95,4.62s5.13-1.87,5.93-4.48l25.89-65.97c.37-.83.62-1.72.62-2.65,0-3.45-2.78-6.23-6.19-6.23"/>
    <path d="M362.79,435.64c-2.65,0-4.92,1.7-5.79,3.98l-11.63,29.58-1.11,3.37-.85-3.42-9.11-28.78-.04-.26v-.07c-.88-2.41-3.17-4.12-5.83-4.12h-14.6c-3.27.17-5.84,2.84-5.84,6.16,0,.88.33,2.04.7,3.14l1.91,6.02-7.19,18-1.17,3.33-.88-3.37-9-28.83-.14-.26v-.07c-.81-2.41-3.1-4.12-5.74-4.12h-14.62c-3.32.17-5.9,2.84-5.9,6.16,0,.88.41,2.04.71,3.14l21.92,65.13c.65,2.66,3.05,4.62,5.93,4.62,2.72,0,5.04-1.79,5.86-4.3l15.28-38.62,1.07-3.43.96,3.41,12.83,38.33c.71,2.66,3.1,4.62,5.98,4.62s5.19-1.87,5.94-4.48l25.9-65.97c.39-.83.61-1.72.61-2.65,0-3.45-2.78-6.23-6.18-6.23"/>
    <path d="M433.5,435.78h-51.05c-2.96,0-5.32,2.38-5.32,5.34v67.8h.01c.12,3.06,2.65,5.56,5.71,5.56h14.46c3.14-.1,5.58-2.56,5.66-5.73v-31.65l20.8-.07c3.05-.01,5.5-2.5,5.5-5.61s-2.49-5.57-5.62-5.57h-20.65l-.03-18.11h30.81c3.17-.16,5.71-2.78,5.71-6.01s-2.72-5.97-6.01-5.97"/>
    <path d="M354.33,219.69c9.29,10.4,10.29,41.35,33.62,29.04,14.04-7.4,13.84-38.63-4.88-49.9-15.14-8.95-23.43,3.13-28.91,17.93-.43,1.17-.45,2.33.17,2.93"/>
    <path d="M318.08,214.73c-9.75,8.1-16.47,30.27-34.41,22.74-14.5-7.38-15.9-36.12,9.11-49.4,17.42-8,26.26,7.86,26.37,24.7l-1.07,1.96Z"/>
    <path d="M342.16,271.32c9.64-.99,7.47-9.93.16-12.18-6.52-1.93-16.42-3.21-23.42-3.07-12.39.28-12.09,9.75-5.63,11.35,4.88,1.63,8.02,2.28,12.24,7.7,3.84,7.46,2.13-2.24,16.66-3.79"/>
    <path d="M387.64,111.33c12.1-20.15,33.17-16.25,43.72-6.2,11.61,10.92,13.48,23.53,9.03,32.39-6.05,11.89-21.55,26.36-31.64,12.36-4.45-6.17-13.91-13.55-19.07-15.69-7.93-3.34-9.44-10.5-2.03-22.87"/>
    <path d="M342.98,292.32c-5.27,13.96-32.66,9.18-33.52-4.34l1.05-.35c12.2,2.85,23.8,4.2,31.65,4.17.29,0,.94-.17.82.52M435.82,200.23c-1.09-3.58-2.86-3.38-2.78-.42.98,36.74-20.96,76.09-67.9,76.35-12.01.03-8.4,19.26-30.3,9.59-15.8-10.65-24.84,10.32-36.07-12.25-2.44-6.5-6.16-9.09-10.94-10.29-46.36-11.49-61.14-75.3-20.29-126.82,8.09,4.83,11.04,5.57,19.66-2.35,4.51-4.15,12.05-8.73,16.16-10.25,9.83-3.76,15.16-7.95,6.64-26.68-10.89-24.33-33.22-17.46-43.42-9.05-11.52,9.52-19.62,24.83-4.78,42.85-41.53,28.03-48.65,62.44-47.69,92.35.98,31.8-7.16,29.1,2.99,61.48.9,2.84-1.09,2.77-2.61,1.86-43.29-27.72-66.69-112.24.77-158.85,1.52-1.35.9-3.13-4.66.12-58.39,30.89-63.76,90.7-54.07,131.01,4.73,19.51-2.47,23.1,5.1,48.75,17.38,53.43,32.2,57.66,53.14,59.2,38.1,0,12.26-21.01,13.65-47.41,0-1.53,1.89-2.29,2.96.89,20.97,47.03,35.77,89.81,90.89,85.82,31.91-4.16,14.21-20,12.26-28.99-23.46-77.86,33.47-96.21,17.35-20.29-10.64,43.49,22.99,39.12,46.68,23.52,24.41-16.04,54.95-121.9,37.27-180.16"/>
    <path d="M210.49,374.49c-6.75,0-12.24,5.49-12.24,12.21s5.5,12.25,12.24,12.25,12.18-5.49,12.18-12.25-5.42-12.21-12.18-12.21M220.7,386.7c0,5.63-4.62,10.19-10.21,10.19s-10.19-4.56-10.19-10.19,4.56-10.17,10.19-10.17,10.21,4.57,10.21,10.17"/>
    <path d="M213.98,388.61c-.24,1.47-1.49,2.5-3.18,2.5-2.34,0-3.84-2.08-3.84-4.44,0-2.48,1.35-4.35,3.83-4.35,1.64,0,2.86.97,3.2,2.42h1.71c-.31-2.69-2.42-4.2-4.96-4.2-3.64,0-5.74,2.65-5.74,6.14s2.27,6.16,5.8,6.16c2.48,0,4.47-1.6,4.97-4.23h-1.79Z"/>
    <path d="M425.34,403.64c-6.8,0-12.22,5.48-12.22,12.24s5.42,12.21,12.22,12.21,12.21-5.41,12.21-12.21-5.49-12.24-12.21-12.24M435.54,415.87c0,5.65-4.6,10.21-10.21,10.21s-10.25-4.56-10.25-10.21,4.57-10.15,10.25-10.15,10.21,4.53,10.21,10.15"/>
    <path d="M423.22,415.18v-3.59h2.38c1.2,0,2.5.32,2.5,1.72,0,1.78-1.3,1.87-2.84,1.87h-2.04ZM423.22,416.71h2l3.07,4.97h1.91l-3.3-5.11c1.72-.22,3.01-1.11,3.01-3.13,0-2.31-1.32-3.29-4.04-3.29h-4.46v11.53h1.81v-4.97Z"/>
  </g>
</svg>