<?xml version="1.0" encoding="UTF-8"?>
<svg id="Calque_1" data-name="Calque 1" xmlns="http://www.w3.org/2000/svg" viewBox="0 0 595.28 595.28">
  <defs>
    <style>
      .cls-1 {
        fill: #00a2b6;
      }

      .cls-2 {
        fill: #0096ba;
      }

      .cls-3 {
        fill: #fff;
      }

      .cls-4 {
        fill: #22b3a5;
      }

      .cls-5 {
        fill: #a2c613;
      }

      .cls-6 {
        fill: #007773;
      }
    </style>
  </defs>
  <rect class="cls-3" width="595.28" height="595.28"/>
  <g>
    <g>
      <path class="cls-5" d="M286.38,375.18c85.05,0,154-68.95,154-154s-68.95-154-154-154-154,68.95-154,154,68.95,154,154,154"/>
      <polygon class="cls-6" points="278.35 156.48 276.38 148.84 136.37 148.89 136.37 187.4 202.68 187.4 132.26 292.68 132.26 300.65 315.28 300.65 328.74 258.73 207.69 258.73 278.35 156.48"/>
      <path class="cls-1" d="M440.38,219.63c-.25-25.56-6.74-49.64-18-70.78h40.64l-22.64,70.78"/>
      <path class="cls-4" d="M219.87,148.86h0s28.96,0,28.96,0h-28.96M414.48,300.61h-50.81l-23.24-78.85-24.61,78.85h-.5l13.44-41.89h-73.89l-14.87-46.72,38.38-55.53-1.97-7.63,22.79,86.36,22.78-86.36h46.49l22.33,87.95,24.61-87.95h6.98c11.27,21.13,17.75,45.22,18.01,70.78l-25.9,80.98"/>
      <path class="cls-2" d="M239.97,212.01l-20.1-63.15h28.96s27.54,0,27.54,0l1.97,7.63-38.38,55.53ZM315.3,300.61h-47.12l-13.33-41.89h73.89l-13.44,41.89"/>
    </g>
    <g>
      <rect class="cls-5" x="184.29" y="474.77" width="226.71" height="53.33"/>
      <path class="cls-3" d="M397,519.29v-5.17h-18.99v-10.24h14.28v-4.91h-14.28v-8.95h18.99v-5.17h-24.93v34.44h24.93ZM366.43,493.02c-1.81-4.66-7.24-9.26-14.69-9.26-10.24,0-16.24,6.93-16.24,15.3v6.21c0,8.28,5.7,15.1,16.04,15.1,7.8,0,12.88-4.6,14.89-9.36l-4.91-2.22c-1.66,3.72-4.91,6.41-9.67,6.41-6.73,0-10.34-4.14-10.34-9.72v-6.62c0-5.74,3.51-9.93,10.13-9.93,4.97,0,8.13,3.05,9.78,6.3l5.02-2.22ZM328.63,519.29v-34.44h-5.79v24.51l-2.79-3.88-15.68-20.64h-5.22v34.44h5.79v-24.41l2.85,3.93,16.14,20.48h4.71ZM283.06,505.94h-10.91l5.37-14.02,5.54,14.02ZM294.54,519.29l-14.07-34.44h-5.59l-13.86,34.44h6.1l3.26-8.69h14.53l3.37,8.69h6.26ZM250.89,495.75c0,2.85-1.86,4.76-5.63,4.76h-9.67v-10.65h9.67c4.18,0,5.63,2.02,5.63,4.35v1.55ZM258.75,519.5v-2.18c-1.45-.87-1.92-1.91-1.92-3.62l-.06-4.04c0-3.51-1.55-6.56-6.82-7.03,5.33-.98,6.98-3.88,6.98-7.65v-1.14c0-5.22-3.57-9-12.16-9h-15.15v34.44h5.95v-14.38h9.05c4.71,0,6,1.61,6.1,4.66l.11,4.55c.11,3.52,1.29,5.38,4.44,5.38h3.47ZM223.84,490.01v-5.17h-24.57v34.44h5.95v-14.43h14.02v-4.96h-14.02v-9.88h18.62Z"/>
    </g>
    <g>
      <path class="cls-1" d="M471.29,459.53v-7.33h-19.6v-16.28h14.11v-6.94h-14.11v-13.51h19.6v-7.33h-27.79v51.4h27.79ZM437.71,415.53v-7.41h-33.18v7.41h12.5v43.99h8.19v-43.99h12.5ZM400.83,445.56c0-7.02-3.71-10.88-12.73-15.21-8.81-4.24-10.97-6.09-10.97-10.18,0-3.63,2.32-6.41,7.02-6.41,5.94,0,8.34,4.01,8.34,8.72v.85h7.87v-2.02c0-8.33-6.26-14.43-15.98-14.43s-15.43,6.33-15.43,14.05c0,8.18,6.94,12.27,13.81,15.43,7.71,3.55,9.8,5.79,9.8,10.12s-2.7,7.41-7.87,7.41c-5.48,0-8.34-2.94-8.34-9.1v-.85h-8.11v2.47c0,8.26,6.49,14.43,16.22,14.43s16.36-6.64,16.36-15.28M352.11,439.46h-9.87l4.86-20.22,5.01,20.22ZM365.39,459.53l-13.74-51.4h-8.64l-13.58,51.4h8.03l3.16-13.27h13.19l3.32,13.27h8.26ZM329.82,408.13h-8.18l-6.48,38.52-7.87-38.52h-7.64l-8.42,38.52-6.4-38.52h-8.41l10.65,51.4h8.02l8.18-36.43,7.72,36.43h8.03l10.8-51.4Z"/>
      <path class="cls-6" d="M263.29,444.71c0,5.25-2.62,8.96-8.42,8.96s-8.34-3.71-8.34-8.96v-21.76c0-5.24,2.62-8.95,8.34-8.95s8.42,3.71,8.42,8.95v21.76ZM271.47,444.17v-20.69c0-9.41-5.02-16.59-16.6-16.59s-16.59,7.18-16.59,16.59v20.69c0,9.49,5.09,16.67,16.59,16.67s16.6-7.18,16.6-16.67M221.76,424.72c0,4.39-2.24,6.64-6.4,6.64h-8.26v-16.36h9.1c4.25,0,5.56,2.47,5.56,5.71v4.01ZM232.8,460.15v-6.33c-1.77,0-2.55-.62-2.55-2.01v-7.87c0-4.48-2.4-9.1-8.1-9.73,5.79-1,7.87-4.24,7.87-9.95v-3.47c0-7.64-3.7-12.66-13.82-12.66h-17.28v51.4h8.17v-22.22h8.8c4.4,0,6.18,2.7,6.18,6.72v8.41c0,5.87,2.31,7.72,9.11,7.72h1.62ZM191.59,459.53v-7.32h-19.61v-16.29h14.12v-6.94h-14.12v-13.51h19.61v-7.33h-27.79v51.4h27.79ZM156.78,411.68v-3.55h-31.64v7.41h21.15l-22.3,40.44v3.54h32.11v-7.41h-21.3l22-40.44Z"/>
    </g>
  </g>
</svg>