<?xml version="1.0" encoding="UTF-8"?>
<svg id="Calque_1" data-name="Calque 1" xmlns="http://www.w3.org/2000/svg" viewBox="0 0 412.39 193.04">
  <defs>
    <style>
      .cls-1 {
        fill: #00a2b6;
      }

      .cls-2 {
        fill: #0096ba;
      }

      .cls-3 {
        fill: #fff;
      }

      .cls-4 {
        fill: #22b3a5;
      }

      .cls-5 {
        fill: #a2c613;
      }

      .cls-6 {
        fill: #007773;
      }
    </style>
  </defs>
  <path class="cls-5" d="M96.59,193.04c53.3,0,96.52-43.22,96.52-96.52S149.9,0,96.59,0,.07,43.22.07,96.52s43.22,96.52,96.52,96.52"/>
  <polygon class="cls-6" points="91.56 55.97 90.32 51.18 2.57 51.21 2.57 75.35 44.13 75.35 0 141.33 0 146.33 114.71 146.33 123.14 120.05 47.28 120.05 91.56 55.97"/>
  <path class="cls-1" d="M193.11,95.55c-.16-16.02-4.22-31.11-11.28-44.36h25.47l-14.19,44.36"/>
  <path class="cls-4" d="M54.91,51.19h0s18.15,0,18.15,0h-18.15M176.88,146.3h-31.85l-14.57-49.42-15.43,49.42h-.32l8.42-26.26h-46.31l-9.32-29.28,24.05-34.8-1.24-4.78,14.28,54.13,14.28-54.13h29.14l14,55.13,15.43-55.13h4.38c7.06,13.24,11.13,28.34,11.29,44.36l-16.24,50.75"/>
  <path class="cls-2" d="M67.51,90.77l-12.6-39.58h18.15s17.26,0,17.26,0l1.24,4.78-24.05,34.8ZM114.72,146.3h-29.53l-8.36-26.26h46.31l-8.43,26.26"/>
  <path class="cls-1" d="M412.39,107.06v-4.21h-11.25v-9.35h8.1v-3.99h-8.1v-7.75h11.25v-4.21h-15.95v29.5h15.95ZM393.12,81.81v-4.25h-19.05v4.25h7.17v25.25h4.7v-25.25h7.17ZM371.95,99.04c0-4.03-2.13-6.24-7.31-8.73-5.05-2.43-6.29-3.5-6.29-5.84,0-2.08,1.33-3.68,4.03-3.68,3.41,0,4.78,2.3,4.78,5.01v.49h4.52v-1.16c0-4.78-3.59-8.28-9.17-8.28s-8.86,3.63-8.86,8.06c0,4.7,3.99,7.04,7.93,8.86,4.43,2.04,5.63,3.32,5.63,5.81s-1.55,4.25-4.52,4.25c-3.14,0-4.78-1.69-4.78-5.23v-.49h-4.65v1.42c0,4.74,3.73,8.28,9.31,8.28s9.39-3.81,9.39-8.77M343.99,95.55h-5.67l2.79-11.61,2.88,11.61ZM351.61,107.06l-7.89-29.5h-4.96l-7.79,29.5h4.61l1.82-7.62h7.57l1.9,7.62h4.74ZM331.19,77.56h-4.7l-3.72,22.11-4.52-22.11h-4.39l-4.83,22.11-3.67-22.11h-4.83l6.11,29.5h4.6l4.7-20.91,4.43,20.91h4.61l6.2-29.5Z"/>
  <path class="cls-6" d="M293,98.55c0,3.01-1.51,5.14-4.83,5.14s-4.78-2.13-4.78-5.14v-12.49c0-3.01,1.51-5.14,4.78-5.14s4.83,2.13,4.83,5.14v12.49ZM297.7,98.25v-11.87c0-5.4-2.88-9.52-9.53-9.52s-9.52,4.12-9.52,9.52v11.87c0,5.45,2.92,9.57,9.52,9.57s9.53-4.12,9.53-9.57M269.17,87.09c0,2.52-1.29,3.81-3.67,3.81h-4.74v-9.39h5.23c2.44,0,3.19,1.42,3.19,3.28v2.3ZM275.51,107.42v-3.63c-1.02,0-1.46-.35-1.46-1.15v-4.52c0-2.57-1.37-5.23-4.65-5.58,3.32-.57,4.52-2.43,4.52-5.71v-1.99c0-4.39-2.12-7.27-7.93-7.27h-9.92v29.5h4.69v-12.76h5.05c2.53,0,3.54,1.55,3.54,3.86v4.83c0,3.37,1.33,4.43,5.23,4.43h.93ZM251.85,107.06v-4.2h-11.26v-9.35h8.11v-3.99h-8.11v-7.75h11.26v-4.21h-15.95v29.5h15.95ZM231.87,79.6v-2.04h-18.16v4.26h12.14l-12.8,23.21v2.03h18.43v-4.25h-12.23l12.63-23.21Z"/>
  <rect class="cls-5" x="213" y="115.81" width="130.12" height="30.61"/>
  <path class="cls-3" d="M335.09,141.36v-2.97h-10.9v-5.88h8.2v-2.82h-8.2v-5.14h10.9v-2.97h-14.31v19.77h14.31ZM317.55,126.28c-1.04-2.68-4.15-5.31-8.43-5.31-5.88,0-9.32,3.98-9.32,8.78v3.56c0,4.75,3.27,8.67,9.21,8.67,4.48,0,7.39-2.64,8.55-5.37l-2.82-1.27c-.95,2.14-2.82,3.68-5.55,3.68-3.86,0-5.94-2.37-5.94-5.58v-3.8c0-3.29,2.02-5.7,5.82-5.7,2.85,0,4.66,1.75,5.61,3.62l2.88-1.27ZM295.85,141.36v-19.77h-3.33v14.07l-1.6-2.23-9-11.85h-3v19.77h3.32v-14.01l1.64,2.26,9.26,11.75h2.7ZM269.69,133.7h-6.26l3.08-8.05,3.18,8.05ZM276.29,141.36l-8.07-19.77h-3.21l-7.95,19.77h3.5l1.87-4.99h8.34l1.93,4.99h3.59ZM251.23,127.85c0,1.64-1.07,2.73-3.23,2.73h-5.55v-6.11h5.55c2.4,0,3.23,1.16,3.23,2.49v.89ZM255.74,141.48v-1.25c-.83-.5-1.1-1.1-1.1-2.08l-.03-2.32c0-2.02-.89-3.77-3.92-4.04,3.06-.56,4.01-2.23,4.01-4.39v-.65c0-3-2.05-5.17-6.98-5.17h-8.7v19.77h3.41v-8.25h5.19c2.7,0,3.44.92,3.5,2.68l.06,2.61c.06,2.02.74,3.09,2.55,3.09h1.99ZM235.7,124.56v-2.97h-14.1v19.77h3.41v-8.28h8.05v-2.85h-8.05v-5.67h10.69Z"/>
</svg>